<?xml version="1.0" encoding="utf-8"?>
<!-- Generator: Adobe Illustrator 18.1.1, SVG Export Plug-In . SVG Version: 6.00 Build 0)  -->
<svg version="1.1" id="Layer_1" xmlns="http://www.w3.org/2000/svg" xmlns:xlink="http://www.w3.org/1999/xlink" x="0px" y="0px"
	 viewBox="0 0 170 195" enable-background="new 0 0 170 195" xml:space="preserve">
<g>
	<g>
		<g>
			<g>
				<path fill="#D09168" d="M34.1,168.6l-6.1-8.5l5.9-6.7h-3.5l-5.1,6.1h-2.5v-6.1h-2.8v15.2h2.8v-6.5h3.3l4.4,6.5
					C34.1,168.6,34.1,168.6,34.1,168.6z"/>
			</g>
			<g>
				<path fill="#D09168" d="M53,161c0-4.5-3.6-7.9-8.2-7.9c-4.6,0-8.2,3.5-8.2,7.9c0,4.5,3.6,7.9,8.2,7.9
					C49.4,168.9,53,165.4,53,161z M50,161c0,3-2.5,5.3-5.2,5.3c-2.7,0-5.2-2.3-5.2-5.3c0-3,2.5-5.3,5.2-5.3
					C47.5,155.7,50,158,50,161z"/>
			</g>
			<g>
				<path fill="#D09168" d="M71.3,168.6v-15.2h-2.8v6.1h-7.9v-6.1h-2.8v15.2h2.8v-6.5h7.9v6.5C71.3,168.6,71.3,168.6,71.3,168.6z"/>
			</g>
			<g>
				<path fill="#D09168" d="M92.4,161c0-4.5-3.6-7.9-8.2-7.9c-4.6,0-8.2,3.5-8.2,7.9c0,4.5,3.6,7.9,8.2,7.9
					C88.8,168.9,92.4,165.4,92.4,161z M89.4,161c0,3-2.5,5.3-5.2,5.3c-2.7,0-5.2-2.3-5.2-5.3c0-3,2.5-5.3,5.2-5.3
					C87,155.7,89.4,158,89.4,161z"/>
			</g>
			<g>
				<path fill="#D09168" d="M112.9,168.6V153l-7.8,7.7l-7.8-7.7v15.5h2.8v-9.3l5,4.8l5-4.8v9.3C112.9,168.6,112.9,168.6,112.9,168.6
					z"/>
			</g>
			<g>
				<path fill="#D09168" d="M118.3,169v-15.6h2.8v9.4l10.7-9.8v15.7H129v-9.3C119.2,169,118.3,169,118.3,169z"/>
			</g>
			<g>
				<path fill="#D09168" d="M151.8,168.6l-6.1-8.5l5.9-6.7h-3.5l-5.1,6.1h-2.5v-6.1h-2.8v15.2h2.8v-6.5h3.3l4.4,6.5
					C151.8,168.6,151.8,168.6,151.8,168.6z"/>
			</g>
			<g>
				<path fill="#D09168" d="M155.4,169v-15.6h2.8v9.4l10.7-9.8v15.7h-2.8v-9.3C156.3,169,155.4,169,155.4,169z"/>
			</g>
			<g>
				<path fill="#D09168" d="M7.5,153c-2.4,0-4.8,1-6.5,3.1l2.3,1.7c1-1.4,2.4-2.2,4.2-2.2c2.3,0,4.4,1.6,5,3.9H6.6v2.7h5.9
					c-0.4,2.3-2.5,4-5,4c-1.7,0-3.2-0.8-4.2-2.1L1,165.8c1.7,2.1,4.1,3.1,6.5,3.1c4.6,0,8.2-3.5,8.2-7.9
					C15.7,156.5,12.1,153,7.5,153z"/>
			</g>
		</g>
		<g>
			<g>
				<path fill="#D09168" d="M38.2,133.4c0-3-2.1-5.2-5.5-5.2h-7.4v15.2h2.8v-4.8h4.6C36.1,138.6,38.2,136.3,38.2,133.4z M35.4,133.4
					c0,1.4-0.9,2.5-2.9,2.5h-4.4v-5.1h4.4C34.5,130.8,35.4,132,35.4,133.4z"/>
			</g>
			<g>
				<path fill="#D09168" d="M55.3,128.2H52l-3.9,6.9l-3.9-6.9h-3.2l5.7,9.5l-3.3,5.7h2.8L55.3,128.2z"/>
			</g>
			<g>
				<path fill="#D09168" d="M71.7,140.6l-2.3-1.6c-1,1.3-2.5,2.1-4.2,2.1c-2.7,0-5.2-2.3-5.2-5.3c0-3,2.5-5.3,5.2-5.3
					c1.7,0,3.2,0.8,4.2,2.2l2.3-1.7c-1.7-2.1-4.1-3.1-6.5-3.1c-4.6,0-8.2,3.5-8.2,7.9c0,4.5,3.6,7.9,8.2,7.9
					C67.6,143.7,70,142.7,71.7,140.6z"/>
			</g>
			<g>
				<path fill="#D09168" d="M89.3,140.6l-2.3-1.6c-1,1.3-2.5,2.1-4.2,2.1c-2.7,0-5.2-2.3-5.2-5.3c0-3,2.5-5.3,5.2-5.3
					c1.7,0,3.2,0.8,4.2,2.2l2.3-1.7c-1.7-2.1-4.1-3.1-6.5-3.1c-4.6,0-8.2,3.5-8.2,7.9c0,4.5,3.6,7.9,8.2,7.9
					C85.2,143.7,87.6,142.7,89.3,140.6z"/>
			</g>
			<g>
				<path fill="#D09168" d="M107.7,143.4l-6.1-8.5l5.9-6.7h-3.5l-5.1,6.1h-2.5v-6.1h-2.8v15.2h2.8v-6.5h3.3l4.4,6.5
					C107.7,143.4,107.7,143.4,107.7,143.4z"/>
			</g>
			<g>
				<path fill="#D09168" d="M126.5,135.8c0-4.5-3.6-7.9-8.2-7.9c-4.6,0-8.2,3.5-8.2,7.9c0,4.5,3.6,7.9,8.2,7.9
					C122.9,143.7,126.5,140.2,126.5,135.8z M123.6,135.8c0,3-2.5,5.3-5.2,5.3c-2.7,0-5.2-2.3-5.2-5.3c0-3,2.5-5.3,5.2-5.3
					C121.1,130.5,123.6,132.8,123.6,135.8z"/>
			</g>
			<g>
				<path fill="#D09168" d="M131.2,143.8v-15.6h2.8v9.4l10.7-9.8v15.7h-2.8V134C132.1,143.8,131.2,143.8,131.2,143.8z"/>
			</g>
			<g>
				<path fill="#D09168" d="M138.4,126.9c2.1,0,3.5-1.2,3.8-3.2l-1.8-0.3c-0.3,1-0.9,1.6-2,1.6c-1.1,0-1.7-0.6-2-1.6l-1.8,0.3
					C134.9,125.6,136.4,126.9,138.4,126.9z"/>
			</g>
		</g>
		<g>
			<g>
				<path fill="#D09168" d="M83.6,110.7c0-4.5-3.6-7.9-8.2-7.9c-4.6,0-8.2,3.5-8.2,7.9c0,4.5,3.6,7.9,8.2,7.9
					C80,118.6,83.6,115.1,83.6,110.7z M80.6,110.7c0,3-2.5,5.3-5.2,5.3c-2.7,0-5.2-2.3-5.2-5.3c0-3,2.5-5.3,5.2-5.3
					C78.1,105.4,80.6,107.7,80.6,110.7z"/>
			</g>
			<g>
				<path fill="#D09168" d="M101.9,118.3v-15.2h-2.8v6.1h-7.9v-6.1h-2.8v15.2h2.8v-6.5h7.9v6.5C101.9,118.3,101.9,118.3,101.9,118.3
					z"/>
			</g>
			<g>
				<path fill="#D09168" d="M121.5,115.6v-12.5h-10l-2.2,12.5h-2.4v6.3h2.6v-3.6c0,0,11,0,11.4,0v3.6h2.6v-6.3H121.5z M112.1,115.6
					l1.8-9.9h4.7v9.9H112.1z"/>
			</g>
			<g>
				<path fill="#D09168" d="M56.2,104.2v-1.4h-2.6v1.4c-4.4,0-7.2,2.5-7.2,6.3c0,3.8,2.8,6.3,7.2,6.4v1.6h2.6v-1.6
					c4.4,0,7.2-2.5,7.2-6.3C63.4,106.6,60.6,104.2,56.2,104.2z M53.6,106.5v7.9c-2.8,0-4.5-1.5-4.5-4
					C49.1,108,50.8,106.6,53.6,106.5z M60.7,110.5c0,2.5-1.7,3.9-4.5,4v-7.9C59.1,106.6,60.7,108,60.7,110.5z"/>
			</g>
		</g>
	</g>
	<g>
		<g>
			<path fill="#D09168" d="M60.8,188.2c0.3,0.3,0.4,0.6,0.6,1c0.2,0.4,0.3,0.9,0.3,1.3c0,0.9-0.3,1.6-0.8,2.2
				c-0.2,0.2-0.5,0.5-0.8,0.6c-0.4,0.2-0.9,0.4-1.4,0.4c-0.7,0-1.5-0.3-2.2-0.9c-0.7-0.7-1-1.6-1-2.4c0-0.4,0.1-0.9,0.2-1.3
				c0.1-0.3,0.3-0.6,0.5-0.9c0.6-0.7,1.5-1.1,2.4-1.1C59.4,187.2,60.2,187.5,60.8,188.2z M57.5,187.8c-0.6,0.7-0.7,1.8-0.7,2.7
				c0,0.9,0.2,1.6,0.3,1.9c0.3,0.8,0.9,1.1,1.6,1.1c0.3,0,0.6-0.1,0.9-0.3c0.3-0.2,0.4-0.5,0.6-0.8c0.2-0.5,0.3-1,0.3-1.9
				c0-0.7-0.1-1.7-0.7-2.6c-0.3-0.4-0.6-0.6-1.1-0.6C57.9,187.4,57.7,187.6,57.5,187.8z"/>
			<path fill="#D09168" d="M67.5,193.1c-0.3,0.3-0.6,0.5-1,0.6c-0.2,0.1-0.4,0.1-0.7,0.1c-1.1,0-1.8-0.4-2.2-0.8
				c-0.8-0.7-1.1-1.7-1.1-2.5c0-0.5,0.1-1.1,0.3-1.6c0.2-0.3,0.3-0.6,0.6-0.8c0.4-0.4,1.1-0.9,2.2-0.9c0.2,0,0.6,0,1,0.2
				c0.3,0.1,0.4,0.2,0.7,0.4c0.1,0,0.1,0.1,0.1,0.1c0.1,0,0.1-0.1,0.1-0.2c0.1-0.2,0.1-0.3,0.2-0.3c0.1,0,0.1,0.1,0.1,0.1
				c0,0,0,0.1,0,0.2c0,0.1-0.1,0.5-0.1,1.3v0.3c0,0.3-0.1,0.3-0.1,0.3c-0.1,0-0.2-0.1-0.2-0.2c-0.1-0.6-0.2-0.9-0.3-1.1
				c-0.1-0.2-0.2-0.3-0.4-0.4c-0.3-0.2-0.6-0.3-1.1-0.3c-0.3,0-0.5,0.1-0.7,0.2c-0.3,0.2-0.5,0.4-0.7,0.7c-0.3,0.6-0.5,1.4-0.5,2.2
				c0,0.4,0,1.2,0.4,1.9c0.2,0.3,0.4,0.6,0.7,0.9c0.3,0.2,0.6,0.3,1,0.3c0.7,0,1.2-0.4,1.5-0.8c0.3-0.4,0.3-0.8,0.4-1.2
				c0-0.1,0-0.2,0.2-0.2c0,0,0.1,0,0.1,0.3c0,0.1,0,0.2,0,0.4c0,0.5,0,0.7,0,0.9c0,0.2,0,0.3,0,0.5c0,0.1,0,0.1,0,0.2
				c0,0.1-0.1,0.2-0.1,0.2c-0.1,0-0.2-0.1-0.2-0.2C67.6,193.4,67.6,193.3,67.5,193.1z"/>
			<path fill="#D09168" d="M70.7,190.3v2.9c0,0.3,0.2,0.3,0.5,0.3c0.1,0,0.3,0,0.3,0.1c0,0.1-0.2,0.1-0.2,0.1c-0.3,0-0.6,0-0.9,0
				c-0.4,0-0.9,0-1.3,0c-0.2,0-0.3,0-0.3-0.1c0-0.1,0.2-0.1,0.4-0.1c0.3,0,0.4,0,0.4-0.2v-5.4c0-0.1,0-0.2-0.1-0.3
				c-0.1-0.1-0.2,0-0.4-0.1c-0.1,0-0.1,0-0.2,0c0,0-0.1-0.1-0.1-0.1c0-0.1,0.1-0.1,0.2-0.1c0.3,0,0.8,0,1.1,0c0.6,0,0.8,0,1.1,0
				c0.1,0,0.3,0,0.3,0.1c0,0.1-0.1,0.1-0.2,0.1c-0.3,0-0.4,0-0.5,0.1c-0.1,0.1-0.1,0.2-0.1,0.3v2.2h2.7v-2.2c0-0.1,0-0.2,0-0.3
				c0,0-0.1-0.1-0.3-0.1c-0.1,0-0.1,0-0.2,0c0,0-0.1,0-0.1,0c-0.2,0-0.2-0.1-0.2-0.1c0-0.1,0-0.1,0.3-0.1c0.3,0,0.7,0,1,0
				c0.4,0,0.7,0,1.1,0c0.2,0,0.2,0.1,0.2,0.1c0,0.1-0.2,0.1-0.2,0.1c-0.3,0-0.4,0-0.4,0c0,0,0,0.1-0.1,0.1c0,0.1,0,0.2,0,0.3v5.2
				c0,0.1,0,0.2,0,0.3c0,0,0.3,0.1,0.4,0.1c0.1,0,0.3,0,0.3,0.1c0,0,0,0.1-0.3,0.1c-0.1,0-0.3,0-0.4,0c0,0-0.1,0-0.1,0h-1
				c0,0-0.1,0-0.1,0c-0.2,0-0.3,0-0.5,0c-0.2,0-0.2-0.1-0.2-0.1c0-0.1,0.3-0.1,0.5-0.1c0.3,0,0.3,0,0.3-0.4v-2.8H70.7z"/>
			<path fill="#D09168" d="M78.3,193c0,0.4-0.3,0.8-0.8,0.8c-0.4,0-0.8-0.3-0.8-0.8c0-0.4,0.4-0.8,0.8-0.8S78.3,192.5,78.3,193z"/>
			<path fill="#D09168" d="M83.1,193.7c-0.1,0-0.2-0.1-0.2-0.1c0-0.1,0.4-0.3,1.9-1.1c1.5-0.7,2.4-2,2.4-3.2c0-0.7-0.3-1.3-0.8-1.6
				c-0.2-0.1-0.5-0.2-0.9-0.2c-0.5,0-0.9,0.1-1.2,0.4c-0.3,0.2-0.4,0.5-0.4,0.7c0,0.2,0,0.2,0.6,0.3c0.3,0.1,0.5,0.3,0.5,0.5
				c0,0.3-0.3,0.6-0.6,0.6c-0.5,0-0.9-0.5-0.9-1.1c0-1.1,1.1-1.9,2.5-1.9c0.8,0,1.4,0.2,1.9,0.7c0.4,0.4,0.7,1,0.7,1.5
				c0,0.8-0.5,1.5-1.5,2.2c-0.4,0.3-1.7,1-2,1.1c-0.1,0-0.1,0-0.1,0.1c0,0,0.1,0,0.3,0c0.4,0,1.2,0,2.3,0c1.1-0.1,1.2-0.1,1.4-1.3
				C89,191,89,191,89.1,191c0.1,0,0.1,0.1,0.1,0.2c0,0,0,0.1,0,0.1c-0.2,0.8-0.2,1.7-0.2,2.4c-0.5,0-0.5,0-2-0.1c-0.4,0-0.7,0-1,0
				c-0.5,0-2.5,0.1-2.8,0.1H83.1z"/>
			<path fill="#D09168" d="M96.4,188.1c0.6,0.6,0.9,1.5,0.9,2.5c0,1-0.5,1.8-1.4,2.5c-0.7,0.5-1.5,0.7-2.3,0.7
				c-1.9,0-3.5-1.5-3.5-3.3c0-1.2,0.7-2.3,1.7-2.9c0.6-0.3,1.4-0.6,2.1-0.6C94.8,187.1,95.8,187.6,96.4,188.1z M91.5,190.6
				c0,1,0.2,1.7,0.8,2.3c0.4,0.4,0.8,0.6,1.3,0.6c0.7,0,1.4-0.4,1.9-1c0.3-0.5,0.5-1.2,0.5-2c0-1.8-0.9-3-2.3-3
				C92.4,187.4,91.5,188.7,91.5,190.6z"/>
			<path fill="#D09168" d="M100.7,192.8c0,0.6,0,0.6,0.9,0.6l0.3,0c0.1,0,0.2,0.1,0.2,0.1c0,0.1-0.1,0.1-0.2,0.1l-0.4,0l-0.7,0
				c-0.1,0-0.3,0-0.6,0h-0.5c-0.2,0-0.2,0-0.9,0h-0.6h-0.1c-0.1,0-0.2-0.1-0.2-0.1c0-0.1,0-0.1,1-0.1c0.4,0,0.5-0.1,0.5-0.6v-4.7
				c0-0.6,0-0.6-1.2-0.6c-0.2,0-0.3-0.1-0.3-0.1c0-0.1,0.1-0.1,0.2-0.1c0.1,0,0.1,0,1,0c0.4,0,0.7,0,0.8,0l2,0
				c0.1,0,0.2,0.1,0.2,0.1c0,0.1-0.1,0.1-0.2,0.1h-0.5c-0.7,0-0.8,0-0.8,0.6V192.8z"/>
			<path fill="#D09168" d="M103.1,193.7c-0.1,0-0.2-0.1-0.2-0.1c0-0.1,0.3-0.3,1.9-1.1c1.5-0.7,2.4-2,2.4-3.2c0-0.7-0.3-1.3-0.8-1.6
				c-0.2-0.1-0.5-0.2-0.9-0.2c-0.5,0-0.9,0.1-1.2,0.4c-0.3,0.2-0.4,0.5-0.4,0.7c0,0.2,0,0.2,0.6,0.3c0.3,0.1,0.5,0.3,0.5,0.5
				c0,0.3-0.3,0.6-0.6,0.6c-0.5,0-0.9-0.5-0.9-1.1c0-1.1,1.1-1.9,2.5-1.9c0.8,0,1.4,0.2,1.9,0.7c0.4,0.4,0.7,1,0.7,1.5
				c0,0.8-0.5,1.5-1.5,2.2c-0.4,0.3-1.7,1-2,1.1c-0.1,0-0.1,0-0.1,0.1c0,0,0.1,0,0.3,0c0.4,0,1.2,0,2.3,0c1.1-0.1,1.2-0.1,1.4-1.3
				c0.1-0.4,0.1-0.4,0.2-0.4c0.1,0,0.1,0.1,0.1,0.2c0,0,0,0.1,0,0.1c-0.2,0.8-0.2,1.7-0.2,2.4c-0.5,0-0.5,0-2-0.1
				c-0.4,0-0.7,0-1.1,0c-0.5,0-2.5,0.1-2.8,0.1H103.1z"/>
		</g>
		<g>
			<polygon fill="#D09168" points="135.9,190.2 117.7,190.2 117.7,189.9 135.9,189.9 135.9,190.2 			"/>
		</g>
		<g>
			<polygon fill="#D09168" points="46.1,190.2 27.9,190.2 27.9,189.9 46.1,189.9 46.1,190.2 			"/>
		</g>
	</g>
</g>
<g>
	<g>
		<g>
			<g>
				<path fill="#D09168" d="M83.8,81.7C83.8,81.7,83.8,81.7,83.8,81.7c-16.4,0-31-9.8-37.3-24.9c-4.1-10-4.1-20.9,0-30.9
					C50.6,16,58.4,8.2,68.3,4.1C73.3,2,78.5,1,83.8,1c16.4,0,31,9.8,37.3,24.9c8.5,20.6-1.3,44.2-21.8,52.7
					C94.3,80.7,89.1,81.7,83.8,81.7z M83.8,2.3c-5.1,0-10.1,1-14.9,3c-9.6,4-17.1,11.5-21.1,21.1c-4,9.6-4,20.2,0,29.9
					c6.1,14.6,20.2,24.1,36.1,24.1h0c5.1,0,10.1-1,14.9-3c19.9-8.2,29.4-31.1,21.1-51C113.8,11.8,99.6,2.3,83.8,2.3z"/>
			</g>
		</g>
		<g>
			<g>
				<path fill="#D09168" d="M83.8,65.1L67,58.1l-6.9-16.8L67,24.6l16.8-6.9l16.8,6.9l6.9,16.8l-6.9,16.8L83.8,65.1z M68,57.1
					l15.8,6.5l15.8-6.5l6.5-15.8l-6.5-15.8l-15.8-6.5L68,25.6l-6.5,15.8L68,57.1z"/>
			</g>
		</g>
		<g>
			<g>
				<path fill="#D09168" d="M71.8,70.3L67,58.1l-12.2-4.8l5.2-12l-5.2-12L67,24.6l4.8-12.2l12,5.2l12-5.2l4.8,12.2l12.2,4.8l-5.2,12
					l5.2,12l-12.2,4.8l-4.8,12.2l-12-5.2L71.8,70.3z M56.6,52.6L68,57.1l4.5,11.4l11.3-4.9L95,68.5l4.5-11.4l11.4-4.5L106,41.4
					l4.9-11.3l-11.4-4.5L95,14.2l-11.3,4.9l-11.3-4.9L68,25.6l-11.4,4.5l4.9,11.3L56.6,52.6z"/>
			</g>
		</g>
		<g>
			<g>
				<path fill="#D09168" d="M83.8,81.7L71.8,70.2l-16.6-0.3l-0.3-16.6L43.5,41.4l11.5-11.9l0.3-16.6l16.6-0.3L83.8,1l11.9,11.5
					l16.6,0.3l0.3,16.6l11.5,11.9l-11.5,11.9l-0.3,16.6l-16.6,0.3L83.8,81.7z M56.6,68.6l15.8,0.3l11.4,11l11.4-11l15.8-0.3
					l0.3-15.8l11-11.4l-11-11.4L111,14.1l-15.8-0.3L83.8,2.9L72.4,13.8l-15.8,0.3l-0.3,15.8L45.3,41.4l10.9,11.4L56.6,68.6z"/>
			</g>
		</g>
		<g>
			<g>
				<polygon fill="#D09168" points="71.5,13.5 68.1,5.2 69.3,4.7 72.8,13 				"/>
			</g>
		</g>
		<g>
			<g>
				
					<rect x="92.7" y="73" transform="matrix(0.3824 0.924 -0.924 0.3824 128.0462 -44.2781)" fill="#D09168" width="8.9" height="1.3"/>
			</g>
		</g>
		<g>
			<g>
				<polygon fill="#D09168" points="96,13.5 94.8,13 98.2,4.7 99.5,5.2 				"/>
			</g>
		</g>
		<g>
			<g>
				<polygon fill="#D09168" points="69.3,78 68.1,77.5 71.5,69.3 72.7,69.8 				"/>
			</g>
		</g>
		<g>
			<g>
				<polygon fill="#D09168" points="55.4,30.3 47.1,26.9 47.6,25.7 55.9,29.1 				"/>
			</g>
		</g>
		<g>
			<g>
				
					<rect x="111.6" y="54.1" transform="matrix(0.924 0.3823 -0.3823 0.924 29.7434 -40.2154)" fill="#D09168" width="8.9" height="1.3"/>
			</g>
		</g>
		<g>
			<g>
				<polygon fill="#D09168" points="47.6,57 47.1,55.8 55.4,52.4 55.9,53.6 				"/>
			</g>
		</g>
		<g>
			<g>
				<polygon fill="#D09168" points="112.2,30.3 111.7,29.1 119.9,25.7 120.4,26.9 				"/>
			</g>
		</g>
	</g>
	<g>
		<path fill="#D09168" d="M93.9,41.6c0-4.5-3.4-7.5-8.6-7.5h-0.1v-1.6h-2.9v1.6h-0.1c-5.2,0-8.6,3-8.6,7.5c0,4.6,3.4,7.6,8.6,7.6
			h0.1V51h2.9v-1.9h0.1C90.5,49.1,93.9,46.1,93.9,41.6z M82.3,46.5h-0.1c-3.5,0-5.5-1.9-5.5-4.9c0-3,2.1-4.9,5.5-4.9h0.1V46.5z
			 M85.3,46.5h-0.1v-9.8h0.1c3.5,0,5.5,1.8,5.5,4.9C90.9,44.6,88.8,46.5,85.3,46.5z"/>
	</g>
</g>
</svg>
