<svg width="243" height="51" viewBox="0 0 243 51" fill="none" xmlns="http://www.w3.org/2000/svg">
<path d="M37.6153 11.6481L19.7424 9.05079L12.6391 25.6579L10.7764 24.8577L18.4896 6.81421L29.7774 8.46049L27.2785 4.00701L29.1281 2.9707L32.4207 8.84746L37.9039 9.64109L37.6153 11.6481Z" fill="#EF3E2D"/>
<path d="M33.7981 6.84091L29.9611 0L24.3074 3.1745L25.7044 5.66031L17.1385 4.41413L7.91016 26.006L13.8131 28.5246L14.7576 26.3077L21.2181 37.8251L30.8269 32.4337L26.0717 23.9989L29.5741 22.0313L34.3031 30.4726L43.5314 25.2976L37.0775 13.7737L39.4584 14.1213L40.3832 7.79195L33.7981 6.84091ZM40.5603 24.4581L35.1426 27.5014L30.4071 19.0601L23.1005 23.1594L27.836 31.5941L22.0314 34.8736L15.8202 23.7759L21.0673 11.4518L34.349 13.3801L40.5603 24.4581ZM37.6153 11.6486L19.7424 9.02502L12.6391 25.6583L10.7764 24.8582L18.4896 6.81468L29.7775 8.46096L27.2785 4.00748L29.1281 2.97117L32.4076 8.87417L37.8908 9.66779L37.6153 11.6486Z" fill="#333132"/>
<path d="M13.6296 50.0306C12.7319 50.0306 11.8544 49.7644 11.108 49.2657C10.3616 48.767 9.77984 48.0581 9.43631 47.2288C9.09279 46.3994 9.0029 45.4868 9.17803 44.6064C9.35316 43.726 9.78544 42.9172 10.4202 42.2825C11.0549 41.6477 11.8637 41.2155 12.7441 41.0403C13.6245 40.8652 14.5371 40.9551 15.3665 41.2986C16.1958 41.6421 16.9047 42.2239 17.4034 42.9703C17.9021 43.7167 18.1683 44.5942 18.1683 45.4919C18.1666 46.6951 17.6878 47.8485 16.837 48.6993C15.9862 49.5501 14.8328 50.0289 13.6296 50.0306ZM13.6296 42.9208C13.1211 42.9208 12.624 43.0716 12.2012 43.3541C11.7783 43.6366 11.4488 44.0382 11.2542 44.508C11.0596 44.9778 11.0087 45.4947 11.1079 45.9935C11.2071 46.4922 11.452 46.9503 11.8115 47.3099C12.1711 47.6695 12.6292 47.9143 13.128 48.0136C13.6267 48.1128 14.1437 48.0618 14.6135 47.8672C15.0833 47.6726 15.4848 47.3431 15.7673 46.9203C16.0499 46.4975 16.2007 46.0004 16.2007 45.4919C16.1989 44.8105 15.9275 44.1576 15.4457 43.6758C14.9639 43.194 14.3109 42.9225 13.6296 42.9208Z" fill="#333132"/>
<path d="M37.2809 50.0306C36.3833 50.0306 35.5057 49.7644 34.7593 49.2657C34.0129 48.767 33.4312 48.0581 33.0877 47.2288C32.7442 46.3994 32.6543 45.4868 32.8294 44.6064C33.0045 43.726 33.4368 42.9172 34.0716 42.2825C34.7063 41.6477 35.515 41.2155 36.3955 41.0403C37.2759 40.8652 38.1885 40.9551 39.0178 41.2986C39.8472 41.6421 40.556 42.2239 41.0548 42.9703C41.5535 43.7167 41.8197 44.5942 41.8197 45.4919C41.8179 46.6951 41.3392 47.8485 40.4884 48.6993C39.6376 49.5501 38.4842 50.0289 37.2809 50.0306ZM37.2809 42.9208C36.7724 42.9208 36.2753 43.0716 35.8525 43.3541C35.4297 43.6366 35.1002 44.0382 34.9056 44.508C34.711 44.9778 34.6601 45.4947 34.7593 45.9935C34.8585 46.4922 35.1033 46.9503 35.4629 47.3099C35.8225 47.6695 36.2806 47.9143 36.7793 48.0136C37.2781 48.1128 37.795 48.0618 38.2648 47.8672C38.7346 47.6726 39.1362 47.3431 39.4187 46.9203C39.7012 46.4975 39.852 46.0004 39.852 45.4919C39.852 44.81 39.5811 44.156 39.099 43.6738C38.6168 43.1917 37.9628 42.9208 37.2809 42.9208Z" fill="#333132"/>
<path d="M77.7228 17.709V38.3629H72.9742V30.1709H65.1035V38.3629H60.3418V17.709H65.0904V25.5796H72.9611V17.709H77.7228Z" fill="#333132"/>
<path d="M101.007 28.0454C101.019 29.4603 100.747 30.8632 100.206 32.1709C99.6896 33.403 98.9516 34.5301 98.0288 35.4963C97.1101 36.4474 96.0107 37.2055 94.7953 37.7263C93.5496 38.2509 92.2116 38.5211 90.8599 38.5211C89.5083 38.5211 88.1703 38.2509 86.9246 37.7263C85.712 37.2037 84.6152 36.4457 83.6976 35.4963C82.7748 34.5301 82.0368 33.403 81.5201 32.1709C80.4529 29.5286 80.4529 26.5753 81.5201 23.933C82.0335 22.6932 82.7717 21.5591 83.6976 20.5879C84.6286 19.6265 85.7439 18.8627 86.9767 18.342C88.2096 17.8214 89.5348 17.5547 90.873 17.5577C92.2177 17.5512 93.5498 17.8163 94.7895 18.337C96.0292 18.8576 97.1511 19.6233 98.0878 20.5879C99.0137 21.5591 99.752 22.6932 100.265 23.933C100.783 25.2411 101.034 26.639 101.007 28.0454ZM96.2579 28.0454C96.2651 27.2385 96.1205 26.4376 95.8316 25.6842C95.5632 24.9933 95.1671 24.3592 94.6641 23.8149C94.1803 23.2939 93.5956 22.8766 92.9457 22.5884C92.2846 22.3004 91.5712 22.1518 90.8501 22.1518C90.129 22.1518 89.4156 22.3004 88.7545 22.5884C88.1035 22.8782 87.517 23.2952 87.0295 23.8149C86.5288 24.3597 86.135 24.9938 85.8686 25.6842C85.3004 27.2048 85.3004 28.8794 85.8686 30.4C86.135 31.0904 86.5288 31.7245 87.0295 32.2693C87.5168 32.791 88.1032 33.2102 88.7545 33.5024C89.4156 33.7904 90.129 33.939 90.8501 33.939C91.5712 33.939 92.2846 33.7904 92.9457 33.5024C93.5962 33.2123 94.1809 32.7927 94.6641 32.2693C95.1671 31.725 95.5632 31.0909 95.8316 30.4C96.1145 29.6478 96.2524 28.8489 96.2382 28.0454H96.2579Z" fill="#333132"/>
<path d="M116.748 27.3894C117.352 27.6691 117.906 28.0457 118.388 28.5045C118.838 28.9469 119.219 29.4556 119.516 30.013C119.88 30.7196 120.056 31.5078 120.027 32.302C120.033 33.1088 119.865 33.9073 119.535 34.6436C119.209 35.3744 118.733 36.0289 118.138 36.5653C117.517 37.1297 116.796 37.5745 116.013 37.8771C115.15 38.2134 114.231 38.3804 113.305 38.369H103.938V17.7085H112.813C113.695 17.6977 114.572 17.8535 115.397 18.1677C116.142 18.4495 116.826 18.8726 117.41 19.4138C117.962 19.9279 118.408 20.5452 118.722 21.2307C119.043 21.9229 119.207 22.6779 119.201 23.441C119.219 24.0653 119.083 24.6844 118.807 25.2447C118.584 25.6889 118.297 26.0978 117.955 26.4581C117.599 26.8243 117.192 27.1379 116.748 27.3894ZM108.72 25.9137H112.327C112.63 25.9209 112.931 25.8664 113.211 25.7537C113.492 25.6409 113.747 25.4722 113.96 25.2578C114.167 25.068 114.332 24.8373 114.445 24.5805C114.557 24.3236 114.616 24.0462 114.616 23.7657C114.616 23.4851 114.557 23.2077 114.445 22.9508C114.332 22.694 114.167 22.4633 113.96 22.2735C113.747 22.0591 113.492 21.8904 113.211 21.7776C112.931 21.6649 112.63 21.6104 112.327 21.6176H108.72V25.9137ZM112.819 34.4402C113.163 34.4486 113.505 34.3879 113.825 34.2617C114.145 34.1355 114.436 33.9465 114.682 33.7056C114.92 33.4864 115.11 33.2202 115.24 32.9238C115.369 32.6275 115.436 32.3075 115.436 31.9839C115.436 31.6604 115.369 31.3404 115.24 31.044C115.11 30.7477 114.92 30.4815 114.682 30.2622C114.438 30.017 114.146 29.8242 113.824 29.6957C113.503 29.5671 113.159 29.5055 112.813 29.5145H108.713V34.4337L112.819 34.4402Z" fill="#333132"/>
<path d="M122.939 38.3629V17.709H127.688V24.2679H130.804C131.813 24.2583 132.815 24.4432 133.755 24.8123C134.622 25.1547 135.412 25.6676 136.077 26.3208C136.731 26.9621 137.254 27.7238 137.618 28.5639C137.986 29.4346 138.176 30.3702 138.176 31.3154C138.176 32.2606 137.986 33.1962 137.618 34.0668C136.879 35.7801 135.489 37.1296 133.755 37.8185C132.815 38.1854 131.813 38.368 130.804 38.3563L122.939 38.3629ZM127.688 28.8591V33.7782H130.804C131.148 33.7875 131.492 33.7272 131.813 33.601C132.134 33.4748 132.426 33.2853 132.673 33.0436C132.911 32.8244 133.101 32.5582 133.23 32.2618C133.36 31.9655 133.427 31.6455 133.427 31.3219C133.427 30.9984 133.36 30.6784 133.23 30.382C133.101 30.0857 132.911 29.8195 132.673 29.6002C132.427 29.3574 132.135 29.1667 131.814 29.0393C131.492 28.912 131.149 28.8507 130.804 28.8591H127.688ZM144.892 38.3563H140.143V17.709H144.892V38.3563Z" fill="#333132"/>
<path d="M153.576 17.7088V30.0132L161.932 17.7088H166.189V38.3627H161.44V26.0779L153.084 38.3627H148.827V17.7088H153.576ZM157.511 15.7411C156.896 15.7501 156.286 15.6387 155.714 15.4131C155.185 15.2082 154.696 14.9105 154.271 14.5343C153.853 14.1565 153.514 13.6994 153.274 13.1897C153.015 12.6518 152.842 12.0762 152.762 11.4844H155.878C155.937 11.9327 156.137 12.3508 156.449 12.6781C156.588 12.8195 156.754 12.9318 156.937 13.0084C157.12 13.0851 157.316 13.1246 157.514 13.1246C157.713 13.1246 157.909 13.0851 158.092 13.0084C158.275 12.9318 158.441 12.8195 158.58 12.6781C158.892 12.3508 159.092 11.9327 159.151 11.4844H162.266C162.122 12.6447 161.585 13.7208 160.745 14.5343C160.311 14.9394 159.801 15.2547 159.245 15.4618C158.689 15.669 158.098 15.7639 157.505 15.7411H157.511Z" fill="#333132"/>
<path d="M196.661 33.7782V41.0389H191.913V38.3629H180.441V41.0389H175.692V33.7782H177.004C177.359 33.6198 177.681 33.3974 177.955 33.1224C178.234 32.8291 178.471 32.4979 178.657 32.1385C178.91 31.6285 179.072 31.0779 179.136 30.5119L180.605 17.709H194.379V33.7782H196.661ZM189.617 22.3002H184.704L183.72 30.4857C183.661 31.0448 183.522 31.5925 183.307 32.1123C183.166 32.4639 182.986 32.7983 182.769 33.1092C182.581 33.3672 182.348 33.5894 182.081 33.7651H189.617V22.3002Z" fill="#333132"/>
<path d="M218.122 28.0459C218.138 29.4611 217.866 30.8647 217.322 32.1714C216.804 33.4059 216.061 34.5334 215.131 35.4968C214.214 36.4462 213.117 37.2042 211.904 37.7268C210.659 38.2514 209.321 38.5216 207.969 38.5216C206.617 38.5216 205.279 38.2514 204.034 37.7268C202.821 37.2042 201.724 36.4462 200.807 35.4968C199.88 34.5326 199.139 33.4051 198.623 32.1714C197.555 29.5291 197.555 26.5758 198.623 23.9335C199.136 22.6921 199.877 21.5576 200.807 20.5885C201.739 19.6277 202.854 18.8638 204.086 18.3422C205.319 17.8205 206.644 17.5518 207.982 17.5518C209.321 17.5518 210.645 17.8205 211.878 18.3422C213.111 18.8638 214.226 19.6277 215.158 20.5885C216.086 21.558 216.824 22.6925 217.335 23.9335C217.871 25.2375 218.139 26.6361 218.122 28.0459ZM213.374 28.0459C213.381 27.2391 213.236 26.4381 212.947 25.6847C212.684 24.9929 212.29 24.3583 211.786 23.8154C211.299 23.2957 210.712 22.8787 210.061 22.5889C209.4 22.3009 208.687 22.1523 207.966 22.1523C207.245 22.1523 206.531 22.3009 205.87 22.5889C205.221 22.8788 204.637 23.2959 204.152 23.8154C203.649 24.3597 203.253 24.9939 202.984 25.6847C202.416 27.2053 202.416 28.88 202.984 30.4005C203.253 31.0914 203.649 31.7256 204.152 32.2698C204.637 32.7913 205.221 33.2106 205.87 33.5029C206.531 33.7909 207.245 33.9395 207.966 33.9395C208.687 33.9395 209.4 33.7909 210.061 33.5029C210.713 33.2107 211.299 32.7915 211.786 32.2698C212.29 31.7269 212.684 31.0923 212.947 30.4005C213.237 29.6497 213.382 28.8507 213.374 28.0459Z" fill="#333132"/>
<path d="M238.743 17.709H243V38.3629H238.251V28.0458L233.496 38.3629H230.551L225.822 28.0458V38.3629H221.073V17.709H225.33L232.053 32.3025L238.743 17.709Z" fill="#333132"/>
<path d="M60.3027 49.9528V45.1123H63.5035V46.0502H61.4702V49.9856L60.3027 49.9528Z" fill="#333132"/>
<path d="M69.2622 46.8832H69.2097L67.3273 49.9528H66.2451V45.1123H67.3667V48.1753H67.4192L69.3081 45.1123H70.3641V49.9528H69.2622V46.8832Z" fill="#333132"/>
<path d="M76.3646 49.9528V46.0568H74.6527V49.9528H73.459V45.1123H77.5058V49.9528H76.3646Z" fill="#333132"/>
<path d="M83.8746 49.9528H80.6279V45.1123H83.8746V46.0371H81.7823V47.0931H83.75V47.9457H81.7823V49.028H83.8746V49.9528Z" fill="#333132"/>
<path d="M89.8569 45.3418C90.099 45.4875 90.2947 45.6991 90.421 45.9518C90.5449 46.2144 90.6091 46.5011 90.6091 46.7914C90.6091 47.0816 90.5449 47.3683 90.421 47.6309C90.2912 47.8821 90.0905 48.0896 89.8438 48.2277C89.5574 48.3864 89.233 48.4636 88.9059 48.4508H88.0401V49.9527H86.8398V45.1123H88.8862C89.2252 45.0927 89.5626 45.1725 89.8569 45.3418ZM89.201 46.2076C89.0452 46.0671 88.84 45.9939 88.6304 46.0043H88.0139V47.5719H88.6304C88.7738 47.5779 88.9163 47.5463 89.0436 47.48C89.1603 47.42 89.2562 47.3263 89.3191 47.2111C89.383 47.0806 89.4145 46.9366 89.4109 46.7914C89.4173 46.6849 89.402 46.5783 89.3659 46.4779C89.3298 46.3776 89.2737 46.2856 89.201 46.2076Z" fill="#333132"/>
<path d="M93.3457 49.9528V45.1123H94.546L95.7922 47.8736H95.8315L97.0777 45.1123H98.2714V49.9528H97.222V46.9357H97.1695L96.1463 49.2313H95.4905L94.4476 46.9357H94.3951V49.9528H93.3457Z" fill="#333132"/>
<path d="M100.928 49.9528L102.495 45.1123H103.912L105.466 49.9528H104.227L103.912 48.8377H102.41L102.095 49.9528H100.928ZM103.145 46.1552L102.626 47.9982H103.702L103.197 46.1552H103.145Z" fill="#333132"/>
<path d="M111.101 45.3418C111.345 45.4871 111.543 45.6986 111.671 45.9518C111.799 46.2132 111.864 46.5005 111.862 46.7913C111.865 47.083 111.798 47.3711 111.665 47.6308C111.539 47.883 111.34 48.0911 111.094 48.2277C110.808 48.3858 110.483 48.4629 110.156 48.4507H109.284V49.9527H108.123V45.1122H110.189C110.508 45.1018 110.824 45.1814 111.101 45.3418ZM110.445 46.2076C110.288 46.0694 110.083 45.9967 109.874 46.0042H109.258V47.5718H109.874C110.018 47.5773 110.16 47.5457 110.287 47.48C110.404 47.4225 110.499 47.3279 110.556 47.2111C110.626 47.0823 110.66 46.9375 110.655 46.7913C110.665 46.6867 110.654 46.5811 110.622 46.4809C110.59 46.3806 110.539 46.2877 110.471 46.2076H110.445Z" fill="#333132"/>
<path d="M116.007 47.9261H115.797V49.9528H114.63V45.1123H115.797V47.08H116.007L117.49 45.1123H118.801L117.03 47.4079L118.795 49.9528H117.404L116.007 47.9261Z" fill="#333132"/>
<path d="M124.665 49.9528H121.418V45.1123H124.665V46.0371H122.566V47.0931H124.533V47.9457H122.566V49.028H124.665V49.9528Z" fill="#333132"/>
<path d="M128.554 49.9528V46.0633H127.242V45.1123H131.046V46.0633H129.735V49.9528H128.554Z" fill="#333132"/>
<path d="M138.209 47.0334H138.799C138.977 47.0396 139.152 46.9865 139.297 46.8825C139.358 46.834 139.407 46.772 139.44 46.7015C139.473 46.631 139.489 46.5537 139.488 46.4759C139.491 46.3943 139.474 46.3132 139.44 46.2391C139.406 46.1651 139.355 46.1001 139.291 46.0495C139.146 45.9394 138.967 45.8837 138.786 45.8921C138.652 45.8871 138.518 45.9164 138.399 45.9774C138.292 46.035 138.202 46.1185 138.136 46.2201C138.076 46.3288 138.043 46.4501 138.038 46.5743H136.962C136.971 46.2895 137.052 46.0117 137.198 45.7675C137.36 45.5268 137.588 45.3378 137.854 45.2231C138.163 45.0837 138.5 45.0164 138.838 45.0264C139.163 45.0199 139.487 45.0779 139.789 45.1969C140.046 45.2893 140.273 45.4504 140.445 45.6626C140.583 45.8536 140.659 46.0827 140.662 46.3185C140.665 46.4898 140.624 46.6591 140.544 46.8104C140.46 46.956 140.343 47.0797 140.202 47.1711C140.054 47.2669 139.886 47.3296 139.711 47.3548V47.4138C139.907 47.4301 140.098 47.4906 140.268 47.5909C140.43 47.6871 140.565 47.8224 140.662 47.9844C140.755 48.1506 140.802 48.3384 140.799 48.5288C140.807 48.8097 140.724 49.0856 140.563 49.3159C140.396 49.5455 140.169 49.7247 139.907 49.834C139.58 49.9637 139.23 50.0262 138.878 50.0177C138.51 50.0485 138.141 49.9899 137.802 49.8471C137.537 49.7236 137.311 49.531 137.146 49.2896C136.988 49.0455 136.903 48.7607 136.903 48.4698H137.959C137.964 48.5986 138.005 48.7235 138.077 48.8305C138.152 48.9384 138.254 49.0245 138.373 49.0798C138.513 49.1406 138.665 49.1697 138.819 49.165C138.96 49.1681 139.101 49.1412 139.232 49.0863C139.342 49.0387 139.438 48.9615 139.507 48.8633C139.573 48.7643 139.607 48.6477 139.606 48.5288C139.609 48.4395 139.592 48.3506 139.554 48.2696C139.517 48.1885 139.46 48.1177 139.389 48.0631C139.218 47.9458 139.013 47.8882 138.805 47.8991H138.215L138.209 47.0334Z" fill="#333132"/>
<path d="M143.141 49.9528L144.702 45.1123H146.118L147.673 49.9528H146.433L146.118 48.8377H144.616L144.302 49.9528H143.141ZM145.351 46.1552L144.833 47.9982H145.908L145.403 46.1552H145.351Z" fill="#333132"/>
<path d="M150.329 49.9528V45.1123H153.53V46.0502H151.51V49.9856L150.329 49.9528Z" fill="#333132"/>
<path d="M160.037 49.0011C159.877 49.328 159.621 49.5981 159.302 49.7751C158.945 49.9628 158.545 50.0554 158.141 50.044C157.736 50.0554 157.334 49.9628 156.974 49.7751C156.656 49.5965 156.397 49.3271 156.233 49.0011C156.057 48.633 155.972 48.2283 155.984 47.8206V47.2565C155.971 46.8466 156.057 46.4396 156.233 46.0693C156.395 45.742 156.654 45.472 156.974 45.2954C157.334 45.1077 157.736 45.0151 158.141 45.0265C158.546 45.0141 158.947 45.1091 159.302 45.3019C159.62 45.4762 159.877 45.7441 160.037 46.0693C160.216 46.439 160.303 46.846 160.293 47.2565V47.8206C160.303 48.2288 160.215 48.6335 160.037 49.0011ZM158.994 46.5678C158.93 46.3975 158.815 46.2512 158.665 46.149C158.515 46.0468 158.336 45.9938 158.155 45.9972C157.974 45.9949 157.796 46.0451 157.643 46.1415C157.49 46.2455 157.373 46.3944 157.309 46.5678C157.217 46.7901 157.175 47.0294 157.184 47.2696V47.8533C157.176 48.0934 157.219 48.3324 157.309 48.5551C157.375 48.7275 157.491 48.876 157.643 48.9815C157.796 49.0779 157.974 49.128 158.155 49.1258C158.331 49.1274 158.505 49.0772 158.653 48.9815C158.807 48.8766 158.926 48.7281 158.994 48.5551C159.084 48.3324 159.127 48.0934 159.119 47.8533V47.2237C159.122 46.9989 159.079 46.7759 158.994 46.5678Z" fill="#333132"/>
<path d="M166.189 45.3414C166.433 45.485 166.629 45.6972 166.753 45.9514C166.884 46.2117 166.949 46.4998 166.944 46.7909C166.946 47.0817 166.881 47.3691 166.753 47.6305C166.624 47.8817 166.423 48.0892 166.176 48.2273C165.89 48.386 165.565 48.4631 165.238 48.4503H164.373V49.9523H163.205V45.1119H165.284C165.601 45.104 165.914 45.1834 166.189 45.3414ZM165.533 46.2072C165.378 46.0666 165.172 45.9935 164.963 46.0039H164.346V47.5714H164.963C165.108 47.5775 165.253 47.5458 165.383 47.4796C165.497 47.4185 165.59 47.3249 165.652 47.2107C165.715 47.0802 165.747 46.9362 165.743 46.7909C165.752 46.6858 165.74 46.58 165.708 46.4797C165.675 46.3795 165.622 46.2868 165.553 46.2072H165.533Z" fill="#333132"/>
<path d="M173.574 49.0011C173.413 49.3268 173.157 49.5964 172.84 49.7751C172.478 49.9543 172.08 50.0475 171.676 50.0475C171.272 50.0475 170.873 49.9543 170.511 49.7751C170.191 49.5985 169.933 49.3285 169.77 49.0011C169.592 48.6335 169.505 48.2288 169.515 47.8205V47.2565C169.504 46.846 169.592 46.439 169.77 46.0693C169.936 45.7378 170.203 45.467 170.531 45.2954C170.889 45.1085 171.289 45.0159 171.692 45.0265C172.099 45.0141 172.501 45.1091 172.86 45.3019C173.176 45.4782 173.432 45.7456 173.594 46.0693C173.773 46.439 173.86 46.846 173.85 47.2565V47.8205C173.854 48.2304 173.759 48.6352 173.574 49.0011ZM172.499 46.5678C172.43 46.3952 172.311 46.2469 172.158 46.1415C172.007 46.0449 171.832 45.9947 171.653 45.9972C171.474 45.9958 171.299 46.0459 171.148 46.1415C170.994 46.2469 170.876 46.3952 170.807 46.5678C170.721 46.7916 170.681 47.0301 170.689 47.2696V47.8533C170.682 48.0927 170.722 48.331 170.807 48.5551C170.877 48.7268 170.996 48.8746 171.148 48.9815C171.299 49.077 171.474 49.1271 171.653 49.1258C171.832 49.1282 172.007 49.0781 172.158 48.9815C172.313 48.8694 172.431 48.7143 172.499 48.5355C172.583 48.3114 172.623 48.073 172.617 47.8337V47.2237C172.619 46.9996 172.579 46.7772 172.499 46.5678Z" fill="#333132"/>
<path d="M176.191 50.9691V49.0014H176.578C176.669 48.9372 176.745 48.8545 176.801 48.7588C176.865 48.6369 176.912 48.5066 176.939 48.3718C176.976 48.1833 177.003 47.9927 177.018 47.8012C177.018 47.5716 177.018 47.2961 177.057 46.9813L177.123 45.1055H180.638V49.0014H181.229V50.9691H180.192V49.9525H177.221V50.9691H176.191ZM179.471 46.0565H178.139L178.093 47.1584C178.093 47.388 178.093 47.5913 178.093 47.7749C178.083 47.9398 178.063 48.1041 178.034 48.2668C178.014 48.398 177.983 48.5273 177.943 48.6538C177.906 48.762 177.853 48.8638 177.785 48.9555V49.008H179.523L179.471 46.0565Z" fill="#333132"/>
<path d="M186.869 49.9528V47.9851H185.085V49.9528H183.918V45.1123H185.085V47.0275H186.869V45.1123H188.037V49.9528H186.869Z" fill="#333132"/>
<path d="M194.995 49.0011C194.833 49.3268 194.578 49.5964 194.261 49.7751C193.901 49.9628 193.499 50.0553 193.093 50.044C192.688 50.0536 192.286 49.9611 191.926 49.7751C191.609 49.5964 191.353 49.3268 191.191 49.0011C191.013 48.6335 190.926 48.2288 190.935 47.8205V47.2565C190.925 46.846 191.013 46.439 191.191 46.0693C191.351 45.7424 191.608 45.4724 191.926 45.2954C192.286 45.1093 192.688 45.0168 193.093 45.0265C193.5 45.0141 193.903 45.1091 194.261 45.3019C194.577 45.4782 194.833 45.7456 194.995 46.0693C195.174 46.439 195.262 46.846 195.251 47.2565V47.8205C195.261 48.2288 195.173 48.6335 194.995 49.0011ZM193.939 46.5678C193.87 46.3952 193.752 46.2469 193.598 46.1415C193.447 46.0473 193.272 45.9975 193.093 45.9975C192.915 45.9975 192.74 46.0473 192.588 46.1415C192.435 46.2469 192.316 46.3952 192.247 46.5678C192.159 46.791 192.117 47.0297 192.123 47.2696V47.8533C192.118 48.0931 192.16 48.3315 192.247 48.5551C192.318 48.7268 192.436 48.8746 192.588 48.9815C192.74 49.0756 192.915 49.1255 193.093 49.1255C193.272 49.1255 193.447 49.0756 193.598 48.9815C193.75 48.8746 193.869 48.7268 193.939 48.5551C194.024 48.331 194.064 48.0927 194.057 47.8533V47.2237C194.059 46.9996 194.019 46.7772 193.939 46.5678Z" fill="#333132"/>
<path d="M201.148 46.8824H201.095L199.213 49.9519H198.15V45.1115H199.272V48.1745H199.324L201.207 45.1115H202.269V49.9519H201.148V46.8824ZM199.666 43.6816C199.66 43.7537 199.671 43.826 199.695 43.8939C199.72 43.9617 199.759 44.0235 199.81 44.0752C199.929 44.1741 200.082 44.2234 200.236 44.2129C200.389 44.2224 200.539 44.1731 200.656 44.0752C200.708 44.0241 200.748 43.9625 200.774 43.8947C200.8 43.8268 200.811 43.7542 200.807 43.6816H201.463C201.471 43.831 201.445 43.9802 201.389 44.1186C201.332 44.257 201.245 44.381 201.135 44.4818C200.876 44.6691 200.565 44.7699 200.246 44.7699C199.927 44.7699 199.616 44.6691 199.357 44.4818C199.248 44.3799 199.162 44.2557 199.106 44.1176C199.049 43.9795 199.023 43.8308 199.029 43.6816H199.666Z" fill="#333132"/>
<path d="M211.196 45.1123H212.318V47.08H212.541L213.912 45.1123H215.223L213.485 47.5194V47.2702L215.223 49.9528H213.872L212.56 47.9261H212.337V49.9528H211.196V47.9261H210.98L209.668 49.9528H208.356L210.075 47.3292V47.585L208.304 45.132H209.615L210.986 47.0996H211.196V45.1123Z" fill="#333132"/>
<path d="M220.785 46.8832H220.733L218.851 49.9528H217.788V45.1123H218.91V48.1753H218.962L220.851 45.1123H221.907V49.9528H220.785V46.8832Z" fill="#333132"/>
<path d="M226.051 47.0334H226.642C226.82 47.0396 226.995 46.9865 227.14 46.8825C227.2 46.8337 227.248 46.7715 227.28 46.7009C227.312 46.6303 227.327 46.5533 227.324 46.4759C227.328 46.3948 227.313 46.3139 227.28 46.2397C227.247 46.1656 227.197 46.1004 227.134 46.0495C226.989 45.9394 226.81 45.8837 226.629 45.8921C226.494 45.8871 226.361 45.9164 226.242 45.9774C226.131 46.0329 226.039 46.1183 225.975 46.2239C225.912 46.3295 225.879 46.4509 225.881 46.5743H224.805C224.813 46.2895 224.895 46.0117 225.041 45.7675C225.201 45.5252 225.43 45.3358 225.697 45.2231C226.006 45.0837 226.342 45.0164 226.681 45.0264C227.006 45.0199 227.329 45.0779 227.632 45.1969C227.891 45.2865 228.118 45.448 228.288 45.6626C228.431 45.8515 228.509 46.0815 228.511 46.3185C228.514 46.4898 228.473 46.6591 228.393 46.8104C228.31 46.956 228.193 47.0797 228.052 47.1711C227.901 47.268 227.731 47.3307 227.553 47.3548V47.4138C227.752 47.4291 227.945 47.4897 228.117 47.5909C228.279 47.6857 228.412 47.8214 228.504 47.9844C228.603 48.1488 228.653 48.3374 228.649 48.5288C228.656 48.8097 228.574 49.0856 228.413 49.3159C228.246 49.5462 228.019 49.7256 227.757 49.834C227.432 49.9643 227.084 50.0268 226.734 50.0177C226.356 50.0547 225.974 49.9961 225.625 49.8471C225.36 49.7236 225.134 49.531 224.969 49.2896C224.811 49.0455 224.727 48.7607 224.727 48.4698H225.783C225.788 48.5998 225.83 48.7256 225.903 48.8333C225.976 48.9411 226.077 49.0264 226.196 49.0798C226.336 49.1406 226.489 49.1697 226.642 49.165C226.783 49.1681 226.924 49.1412 227.055 49.0863C227.166 49.0387 227.261 48.9615 227.33 48.8633C227.396 48.7643 227.43 48.6477 227.429 48.5288C227.433 48.4395 227.415 48.3506 227.377 48.2696C227.34 48.1885 227.283 48.1177 227.212 48.0631C227.041 47.9458 226.836 47.8882 226.629 47.8991H226.038L226.051 47.0334Z" fill="#333132"/>
<path d="M234.375 49.9528V47.9851H232.591V49.9528H231.424V45.1123H232.591V47.0275H234.375V45.1123H235.543V49.9528H234.375Z" fill="#333132"/>
<path d="M241.636 46.8832H241.584L239.701 49.9528H238.639V45.1123H239.76V48.1753H239.813L241.695 45.1123H242.758V49.9528H241.636V46.8832Z" fill="#333132"/>
<path d="M40.5604 24.4584L35.1428 27.5017L30.4073 19.0605L23.1007 23.1598L27.8362 31.5945L22.0316 34.8477L15.8203 23.7763L21.0871 11.4521L34.3492 13.3805L40.5604 24.4584Z" fill="#F4E5B1"/>
<path d="M40.5799 38.5001H10.8353L5.41113 17.5117H45.6433L40.5799 38.5001ZM12.3767 36.5325H39.0254L43.1444 19.4794H7.94942L12.3767 36.5325Z" fill="#333132"/>
<path d="M10.6451 37.7665L4.19768 13.1903L0.0590299 13.3084L0 11.3407L5.70623 11.1768L12.5537 37.268L10.6451 37.7665Z" fill="#333132"/>
</svg>

