<?xml version="1.0" encoding="utf-8"?>
<!-- Generator: Adobe Illustrator 18.1.1, SVG Export Plug-In . SVG Version: 6.00 Build 0)  -->
<svg version="1.1" id="Layer_1" xmlns="http://www.w3.org/2000/svg" xmlns:xlink="http://www.w3.org/1999/xlink" x="0px" y="0px"
	 viewBox="0 0 356 106" enable-background="new 0 0 356 106" xml:space="preserve">
<g>
	<g>
		<path fill="#D09168" d="M181,95.1l-7.8-10.9l7.5-8.6h-4.5l-6.6,7.8h-3.2v-7.8h-3.6v19.5h3.6v-8.3h4.3l5.7,8.3
			C181,95.1,181,95.1,181,95.1z"/>
	</g>
	<g>
		<path fill="#D09168" d="M205.2,85.4c0-5.7-4.6-10.2-10.5-10.2c-5.9,0-10.5,4.5-10.5,10.2c0,5.7,4.6,10.2,10.5,10.2
			C200.6,95.5,205.2,91.1,205.2,85.4z M201.4,85.4c0,3.8-3.2,6.7-6.7,6.7c-3.5,0-6.7-3-6.7-6.7c0-3.8,3.2-6.7,6.7-6.7
			C198.3,78.6,201.4,81.6,201.4,85.4z"/>
	</g>
	<g>
		<path fill="#D09168" d="M228.7,95.1V75.6h-3.6v7.8H215v-7.8h-3.6v19.5h3.6v-8.3h10.2v8.3C228.7,95.1,228.7,95.1,228.7,95.1z"/>
	</g>
	<g>
		<path fill="#D09168" d="M255.8,85.4c0-5.7-4.6-10.2-10.5-10.2c-5.8,0-10.5,4.5-10.5,10.2c0,5.7,4.6,10.2,10.5,10.2
			C251.2,95.5,255.8,91.1,255.8,85.4z M252,85.4c0,3.8-3.2,6.7-6.7,6.7c-3.5,0-6.7-3-6.7-6.7c0-3.8,3.2-6.7,6.7-6.7
			C248.8,78.6,252,81.6,252,85.4z"/>
	</g>
	<g>
		<path fill="#D09168" d="M282.1,95.1V75.2L272,85l-10.1-9.8v19.9h3.6v-12l6.5,6.2l6.5-6.2v12C282.1,95.1,282.1,95.1,282.1,95.1z"/>
	</g>
	<g>
		<path fill="#D09168" d="M289,95.7V75.6h3.6v12.1l13.7-12.6v20.1h-3.6v-12C290.2,95.7,289,95.7,289,95.7z"/>
	</g>
	<g>
		<path fill="#D09168" d="M332,95.1l-7.8-10.9l7.5-8.6h-4.5l-6.6,7.8h-3.2v-7.8h-3.6v19.5h3.6v-8.3h4.3l5.7,8.3
			C332,95.1,332,95.1,332,95.1z"/>
	</g>
	<g>
		<path fill="#D09168" d="M336.7,95.7V75.6h3.6v12.1L354,75.1v20.1h-3.6v-12C337.8,95.7,336.7,95.7,336.7,95.7z"/>
	</g>
	<g>
		<path fill="#D09168" d="M146.9,75.2c-3.1,0-6.2,1.3-8.3,4l3,2.2c1.2-1.8,3.1-2.8,5.3-2.8c2.9,0,5.6,2.1,6.4,4.9h-7.6V87h7.6
			c-0.5,2.9-3.2,5.1-6.4,5.1c-2.2,0-4.2-1-5.4-2.7l-2.9,2.1c2.2,2.7,5.2,4,8.3,4c5.8,0,10.5-4.4,10.5-10.2
			C157.4,79.7,152.7,75.2,146.9,75.2z"/>
	</g>
</g>
<g>
	<g>
		<path fill="#D09168" d="M155.1,50c0-3.8-2.7-6.7-7-6.7h-9.5v19.5h3.6v-6.2h5.9C152.5,56.6,155.1,53.8,155.1,50z M151.5,50
			c0,1.7-1.1,3.3-3.7,3.3h-5.7v-6.5h5.7C150.4,46.7,151.5,48.2,151.5,50z"/>
	</g>
	<g>
		<path fill="#D09168" d="M177.1,43.3h-4.2l-4.9,8.9l-4.9-8.9h-4.2l7.3,12.2l-4.2,7.3h3.6L177.1,43.3z"/>
	</g>
	<g>
		<path fill="#D09168" d="M198.1,59.2l-2.9-2.1c-1.2,1.7-3.2,2.7-5.4,2.7c-3.5,0-6.7-2.9-6.7-6.7c0-3.8,3.2-6.7,6.7-6.7
			c2.2,0,4.1,1,5.3,2.8l3-2.2c-2.2-2.7-5.2-4-8.3-4c-5.8,0-10.5,4.4-10.5,10.2c0,5.7,4.6,10.2,10.5,10.2
			C192.9,63.2,195.9,61.9,198.1,59.2z"/>
	</g>
	<g>
		<path fill="#D09168" d="M220.7,59.2l-2.9-2.1c-1.2,1.7-3.2,2.7-5.4,2.7c-3.5,0-6.7-2.9-6.7-6.7c0-3.8,3.2-6.7,6.7-6.7
			c2.2,0,4.1,1,5.3,2.8l3-2.2c-2.2-2.7-5.2-4-8.3-4c-5.8,0-10.5,4.4-10.5,10.2c0,5.7,4.6,10.2,10.5,10.2
			C215.5,63.2,218.5,61.9,220.7,59.2z"/>
	</g>
	<g>
		<path fill="#D09168" d="M244.3,62.8l-7.8-10.9l7.5-8.6h-4.5l-6.6,7.8h-3.2v-7.8h-3.6v19.5h3.6v-8.3h4.3l5.7,8.3
			C244.3,62.8,244.3,62.8,244.3,62.8z"/>
	</g>
	<g>
		<path fill="#D09168" d="M268.5,53c0-5.7-4.6-10.2-10.5-10.2c-5.8,0-10.5,4.4-10.5,10.2c0,5.7,4.6,10.2,10.5,10.2
			C263.9,63.2,268.5,58.8,268.5,53z M264.7,53c0,3.8-3.2,6.7-6.7,6.7c-3.5,0-6.7-2.9-6.7-6.7c0-3.8,3.2-6.7,6.7-6.7
			C261.6,46.3,264.7,49.3,264.7,53z"/>
	</g>
	<g>
		<path fill="#D09168" d="M274.5,63.4V43.3h3.6v12.1l13.7-12.6v20.1h-3.6v-12C275.6,63.4,274.5,63.4,274.5,63.4z"/>
	</g>
	<g>
		<path fill="#D09168" d="M283.8,41.6c2.6,0,4.5-1.6,4.9-4.1l-2.3-0.4c-0.4,1.2-1.2,2-2.6,2c-1.4,0-2.2-0.8-2.6-2l-2.3,0.4
			C279.3,40,281.1,41.6,283.8,41.6z"/>
	</g>
</g>
<g>
	<g>
		<path fill="#D09168" d="M186.2,20.9c0-5.7-4.6-10.2-10.5-10.2c-5.8,0-10.5,4.4-10.5,10.2c0,5.7,4.6,10.2,10.5,10.2
			C181.6,31,186.2,26.6,186.2,20.9z M182.4,20.9c0,3.8-3.2,6.7-6.7,6.7c-3.5,0-6.7-3-6.7-6.7c0-3.8,3.2-6.7,6.7-6.7
			C179.2,14.1,182.4,17.1,182.4,20.9z"/>
	</g>
	<g>
		<path fill="#D09168" d="M209.7,30.6V11.1h-3.6v7.8h-10.2v-7.8h-3.6v19.5h3.6v-8.3h10.2v8.3C209.7,30.6,209.7,30.6,209.7,30.6z"/>
	</g>
	<g>
		<path fill="#D09168" d="M234.8,27.2V11.1H222l-2.8,16.1h-3.1v8.1h3.3v-4.7c0,0,14.2,0,14.7,0v4.7h3.3v-8.1H234.8z M222.8,27.2
			l2.4-12.7h6v12.7H222.8z"/>
	</g>
	<g>
		<path fill="#D09168" d="M151.1,12.5v-1.7h-3.4v1.7c-5.6,0-9.2,3.2-9.2,8c0,4.9,3.6,8.1,9.2,8.2v2h3.4v-2c5.6,0,9.2-3.2,9.2-8.1
			C160.3,15.7,156.7,12.5,151.1,12.5z M147.8,15.5v10.2c-3.6,0-5.8-1.9-5.8-5.1C142,17.5,144.2,15.6,147.8,15.5z M156.9,20.6
			c0,3.2-2.2,5.1-5.8,5.1V15.5C154.7,15.6,156.9,17.5,156.9,20.6z"/>
	</g>
</g>
<g>
	<g>
		<g>
			<g>
				<path fill="#D09168" d="M53.4,104.7C53.4,104.7,53.4,104.7,53.4,104.7c-21,0-39.8-12.6-47.9-32c-5.3-12.8-5.3-26.9,0-39.6
					c5.3-12.8,15.2-22.7,28-28c6.3-2.6,13-4,19.8-4c21,0,39.8,12.5,47.9,32c10.9,26.4-1.6,56.7-28,67.6
					C66.9,103.3,60.2,104.7,53.4,104.7z M53.4,2.8c-6.6,0-13,1.3-19.1,3.8c-12.4,5.1-22,14.7-27.1,27.1C2,46.1,2,59.7,7.1,72
					C14.9,90.8,33.1,103,53.4,103h0c6.6,0,13-1.3,19.1-3.8c25.5-10.6,37.7-39.9,27.1-65.4C91.9,14.9,73.7,2.8,53.4,2.8z"/>
			</g>
		</g>
		<g>
			<g>
				<path fill="#D09168" d="M53.4,83.3l-21.5-8.9L23,52.9l8.9-21.5l21.5-8.9l21.5,8.9l8.9,21.5l-8.9,21.5L53.4,83.3z M33.2,73.1
					l20.2,8.4l20.2-8.4L82,52.9l-8.4-20.2l-20.2-8.4l-20.2,8.4l-8.4,20.2L33.2,73.1z"/>
			</g>
		</g>
		<g>
			<g>
				<path fill="#D09168" d="M38,90l-6.1-15.6l-15.6-6.1L23,52.9l-6.7-15.4l15.6-6.1L38,15.7l15.4,6.7l15.4-6.7l6.1,15.6l15.6,6.1
					l-6.7,15.4l6.7,15.4l-15.6,6.1L68.8,90l-15.4-6.7L38,90z M18.5,67.3l14.7,5.8L39,87.8l14.4-6.3l14.5,6.3l5.8-14.7l14.7-5.7
					L82,52.9l6.3-14.5l-14.7-5.8L67.9,18l-14.5,6.3L39,18l-5.8,14.7l-14.7,5.8l6.3,14.5L18.5,67.3z"/>
			</g>
		</g>
		<g>
			<g>
				<path fill="#D09168" d="M53.4,104.6L38.1,89.9l-21.3-0.4l-0.4-21.2L1.7,52.9l14.7-15.3l0.4-21.2l21.3-0.4L53.4,1.1l15.3,14.7
					L90,16.3l0.4,21.2l14.7,15.3L90.4,68.2L90,89.5l-21.2,0.4L53.4,104.6z M18.5,87.8l20.3,0.4l14.6,14.1L68,88.2l20.3-0.4l0.4-20.3
					l14.1-14.6L88.7,38.2L88.3,18L68,17.5l-14.6-14l-14.6,14L18.5,18l-0.4,20.3L4,52.9l14,14.6L18.5,87.8z"/>
			</g>
		</g>
		<g>
			<g>
				<polygon fill="#D09168" points="37.7,17.2 33.3,6.5 34.8,5.9 39.3,16.5 				"/>
			</g>
		</g>
		<g>
			<g>
				<polygon fill="#D09168" points="72,99.9 67.6,89.4 69.2,88.7 73.5,99.2 				"/>
			</g>
		</g>
		<g>
			<g>
				<polygon fill="#D09168" points="69.1,17.2 67.5,16.5 72,5.9 73.5,6.5 				"/>
			</g>
		</g>
		<g>
			<g>
				<polygon fill="#D09168" points="34.8,99.9 33.3,99.2 37.6,88.7 39.2,89.4 				"/>
			</g>
		</g>
		<g>
			<g>
				<polygon fill="#D09168" points="17.1,38.7 6.4,34.3 7,32.7 17.7,37.2 				"/>
			</g>
		</g>
		<g>
			<g>
				
					<rect x="89.1" y="69.2" transform="matrix(0.924 0.3823 -0.3823 0.924 33.9835 -30.9376)" fill="#D09168" width="11.4" height="1.7"/>
			</g>
		</g>
		<g>
			<g>
				<polygon fill="#D09168" points="7,73 6.4,71.4 17.1,67 17.7,68.6 				"/>
			</g>
		</g>
		<g>
			<g>
				<polygon fill="#D09168" points="89.9,38.7 89.2,37.1 99.8,32.7 100.4,34.3 				"/>
			</g>
		</g>
	</g>
	<g>
		<path fill="#D09168" d="M66.4,53.1c0-5.8-4.3-9.6-11-9.6h-0.1v-2.1h-3.8v2.1h-0.1c-6.7,0-11,3.8-11,9.6c0,5.9,4.3,9.7,11,9.7h0.1
			v2.4h3.8v-2.4h0.1C62.1,62.8,66.4,59,66.4,53.1z M51.5,59.5h-0.1c-4.4,0-7.1-2.4-7.1-6.3c0-3.9,2.7-6.2,7.1-6.3h0.1V59.5z
			 M55.4,59.5h-0.1V46.9h0.1c4.4,0,7.1,2.4,7.1,6.3C62.5,57.1,59.9,59.4,55.4,59.5z"/>
	</g>
</g>
</svg>
