<?xml version="1.0" encoding="utf-8"?>
<!-- Generator: Adobe Illustrator 18.1.1, SVG Export Plug-In . SVG Version: 6.00 Build 0)  -->
<svg version="1.1" id="Layer_1" xmlns="http://www.w3.org/2000/svg" xmlns:xlink="http://www.w3.org/1999/xlink" x="0px" y="0px"
	 viewBox="0 0 324 66" enable-background="new 0 0 324 66" xml:space="preserve">
<g>
	<path fill="#15191D" d="M86.1,21.5c1.4,0,2.7,0.1,3.8,0.3c1.1,0.2,2.1,0.6,3.1,1.1c0.9,0.5,1.7,1.3,2.2,2.2c0.5,1,0.8,2.1,0.8,3.5
		s-0.3,2.6-0.8,3.5c-0.5,1-1.3,1.7-2.2,2.3c-0.9,0.5-2,0.9-3.1,1.1c-1.1,0.2-2.3,0.4-3.7,0.4h-1.4v8.4h-5.4V21.5H86.1z M84.7,32h1.1
		c3.1,0,4.7-1.1,4.7-3.3c0-2.2-1.6-3.3-4.7-3.3h-1.1V32z"/>
	<path fill="#15191D" d="M98.3,27.4h5.1v5.8h3.3c2.1,0,3.7,0.5,5,1.4c1.2,0.9,1.9,2.3,1.9,4.2c0,3.7-2.4,5.6-7.1,5.6h-8.2V27.4z
		 M105.4,41c1.1,0,1.9-0.2,2.4-0.5s0.8-1,0.8-1.8c0-0.8-0.3-1.3-0.8-1.6c-0.5-0.3-1.4-0.5-2.5-0.5h-1.9V41H105.4z M115.5,27.4h5.1
		v17h-5.1V27.4z"/>
	<path fill="#15191D" d="M126.6,42.1c-1.6-1.8-2.3-4.3-2.3-7.5c0-3.1,0.3-5.7,0.8-7.8c0.6-2.1,1.6-3.7,3-4.9c1.5-1.2,4-1.8,7.4-2
		c3.3-0.2,5.3-0.3,5.9-0.5l-0.2,4.3c-0.8,0.2-2.8,0.3-6.1,0.5c-2.5,0.1-4.3,0.6-5.5,1.5c-1.1,0.9-1.8,2.6-1.9,5.2h0.1
		c0.5-1,1.2-1.8,2.4-2.5c1.1-0.7,2.4-1,3.8-1c2.7,0,4.8,0.8,6.2,2.3c1.5,1.5,2.2,3.6,2.2,6.3c0,2.6-0.8,4.7-2.4,6.3
		c-1.6,1.6-3.8,2.4-6.6,2.4C130.4,44.8,128.1,43.9,126.6,42.1z M136.2,39.7c0.6-0.9,1-2.1,1-3.7c0-3.5-1.2-5.2-3.6-5.2
		c-1.3,0-2.2,0.5-2.9,1.4s-1,2.2-1,3.7c0,1.7,0.4,3,1.1,3.8c0.7,0.9,1.6,1.3,2.8,1.3C134.7,41.1,135.6,40.6,136.2,39.7z"/>
	<path fill="#15191D" d="M156.2,41.6c-1.2,2.1-3.2,3.2-5.8,3.2c-1.7,0-3.1-0.5-4.2-1.5c-1.1-1-1.7-2.3-1.7-3.9
		c0-1.8,0.8-3.2,2.3-4.2c1.5-1,3.7-1.4,6.6-1.4c0.8,0,1.6,0,2.4,0.1c0-2.2-1.3-3.3-3.8-3.3c-1.8,0-3.6,0.5-5.4,1.4l-0.2-3.7
		c1.7-0.8,3.8-1.2,6.4-1.2c5.2,0,7.8,2.4,7.8,7.1c0,0.3,0,1,0,2c0,1,0,1.8,0,2.2c0,2.8,0.1,4.8,0.2,6.1h-4.5
		c-0.1-0.3-0.1-0.7-0.1-1.3C156.2,42.8,156.2,42.3,156.2,41.6L156.2,41.6z M154.5,36.6c-3.4,0-5.1,0.8-5.1,2.5
		c0,1.4,0.8,2.1,2.5,2.1c1.2,0,2.1-0.4,2.8-1.2c0.7-0.8,1.1-1.9,1.1-3.4C155.4,36.6,154.9,36.6,154.5,36.6z"/>
	<path fill="#15191D" d="M172.8,40.7c-1.4-1.9-2.3-3.3-2.9-4.2h-0.1v7.9h-5.2v-17h5.2v7.5h0.1l2.7-3.7l2.8-3.8h5.9l-6.6,8l7.2,8.9
		h-6.4L172.8,40.7z"/>
	<path fill="#15191D" d="M198.3,29.4c1.7,1.6,2.6,3.8,2.6,6.5c0,2.7-0.9,4.8-2.6,6.4c-1.7,1.6-4,2.4-6.8,2.4c-2.8,0-5.1-0.8-6.8-2.4
		c-1.7-1.6-2.6-3.8-2.6-6.4c0-2.8,0.9-4.9,2.6-6.5c1.7-1.6,4-2.4,6.9-2.4C194.3,27,196.6,27.8,198.3,29.4z M188.5,32.1
		c-0.7,1-1.1,2.2-1.1,3.8c0,1.6,0.4,2.8,1.1,3.8c0.7,1,1.7,1.4,2.9,1.4c1.2,0,2.2-0.5,2.9-1.4c0.7-0.9,1.1-2.2,1.1-3.8
		c0-1.6-0.4-2.9-1.1-3.8c-0.7-0.9-1.7-1.4-2.9-1.4C190.3,30.6,189.3,31.1,188.5,32.1z"/>
	<path fill="#15191D" d="M204,27.4h9.4c1.7,0,3.1,0.3,4.3,1c1.2,0.6,1.7,1.7,1.7,3.2c0,2.2-1.1,3.5-3.4,3.9v0
		c1.2,0.2,2.1,0.7,2.8,1.4c0.7,0.7,1.1,1.6,1.1,2.7c0,0.8-0.1,1.5-0.4,2.1c-0.3,0.6-0.6,1.1-1.1,1.4c-0.4,0.3-1,0.6-1.6,0.8
		c-0.6,0.2-1.3,0.3-1.9,0.4c-0.6,0.1-1.3,0.1-2.1,0.1H204V27.4z M211.6,34.1c0.9,0,1.6-0.1,2.1-0.4c0.4-0.3,0.7-0.8,0.7-1.4
		c0-0.7-0.2-1.1-0.7-1.4s-1.2-0.4-2.2-0.4h-2.3v3.7H211.6z M211.9,41.2c2,0,3-0.7,3-2.1c0-1.3-1-1.9-3.1-1.9h-2.7v4H211.9z"/>
	<path fill="#15191D" d="M241.7,42.2c-3.4,0-6-0.8-7.9-2.3c-2.2-1.8-3.3-4.2-3.3-7.4c0-3.1,1.1-5.4,3.3-7.2c1.8-1.4,4.5-2.1,7.9-2.1
		v-2.1h5.4v2.1c3.4,0,6,0.7,7.8,2.1c2.2,1.7,3.3,4.1,3.3,7.2c0,3.2-1.1,5.7-3.3,7.4c-1.9,1.5-4.5,2.3-7.8,2.3v2.6h-5.4V42.2z
		 M241.8,27c-1.8,0-3.3,0.5-4.2,1.4c-1,1-1.5,2.3-1.5,4c0,1.9,0.5,3.3,1.5,4.3c1,1,2.4,1.5,4.2,1.6V27z M251.4,36.8
		c1-1,1.5-2.4,1.5-4.3c0-1.7-0.5-3.1-1.5-4c-1-1-2.4-1.4-4.3-1.4v11.4C249,38.4,250.4,37.8,251.4,36.8z"/>
	<path fill="#15191D" d="M276.7,29.4c1.7,1.6,2.6,3.8,2.6,6.5c0,2.7-0.9,4.8-2.6,6.4c-1.7,1.6-4,2.4-6.8,2.4c-2.8,0-5.1-0.8-6.8-2.4
		c-1.7-1.6-2.6-3.8-2.6-6.4c0-2.8,0.9-4.9,2.6-6.5c1.7-1.6,4-2.4,6.9-2.4C272.8,27,275,27.8,276.7,29.4z M267,32.1
		c-0.7,1-1.1,2.2-1.1,3.8c0,1.6,0.4,2.8,1.1,3.8c0.7,1,1.7,1.4,2.9,1.4c1.2,0,2.2-0.5,2.9-1.4c0.7-0.9,1.1-2.2,1.1-3.8
		c0-1.6-0.4-2.9-1.1-3.8c-0.7-0.9-1.7-1.4-2.9-1.4C268.7,30.6,267.7,31.1,267,32.1z"/>
	<path fill="#15191D" d="M282.5,27.4h5.1v6.3h6.6v-6.3h5.1v17h-5.1v-7h-6.6v7h-5.1V27.4z"/>
	<path fill="#15191D" d="M301.7,40.6h1.5c1.3-2,1.9-4.9,1.9-8.5v-4.7h14.6v13.2h1.9v8.1h-4.5v-4.4h-11v4.4h-4.5V40.6z M314.6,40.6
		v-9.6h-4.9v1.7c0,3.4-0.5,6-1.5,7.8H314.6z"/>
</g>
<g>
	<g>
		<path fill="#3D5CA9" d="M33.9,32.1c0,1.9,0.5,3.3,1.5,4.3c1,1,2.4,1.5,4.2,1.6V26.6c-1.8,0-3.3,0.5-4.2,1.4
			C34.4,29,33.9,30.4,33.9,32.1z"/>
		<path fill="#3D5CA9" d="M45,26.6V38c1.9,0,3.3-0.6,4.3-1.6c1-1,1.5-2.5,1.5-4.3c0-1.7-0.5-3.1-1.5-4C48.3,27.1,46.9,26.6,45,26.6z
			"/>
		<path fill="#3D5CA9" d="M17.4,25h-1.1v6.6h1.1c3.1,0,4.7-1.1,4.7-3.3S20.5,25,17.4,25z"/>
		<path fill="#3D5CA9" d="M60.9,0H6.2C3.3,0,1,2.3,1,5.2v54.7c0,2.9,2.3,5.2,5.2,5.2h54.7c2.9,0,5.2-2.3,5.2-5.2V5.2
			C66.1,2.3,63.8,0,60.9,0z M26.7,31.8c-0.5,1-1.3,1.7-2.2,2.3c-0.9,0.5-2,0.9-3.1,1.1c-1.1,0.2-2.3,0.4-3.7,0.4h-1.4V44h-5.4V21.1
			h6.8c1.4,0,2.7,0.1,3.8,0.3c1.1,0.2,2.1,0.6,3.1,1.1c0.9,0.5,1.7,1.3,2.2,2.2c0.5,1,0.8,2.1,0.8,3.5
			C27.5,29.6,27.2,30.8,26.7,31.8z M52.9,39.6c-1.9,1.5-4.5,2.3-7.8,2.3v2.6h-5.4v-2.6c-3.4,0-6-0.8-7.9-2.3
			c-2.2-1.8-3.3-4.2-3.3-7.4c0-3.1,1.1-5.4,3.3-7.2c1.8-1.4,4.5-2.1,7.9-2.1v-2.1h5.4v2.1c3.4,0,6,0.7,7.8,2.1
			c2.2,1.7,3.3,4.1,3.3,7.2C56.2,35.3,55.1,37.8,52.9,39.6z"/>
	</g>
</g>
<g>
	<path fill="#231F20" d="M79.3,58.5h0.8v3.7c0,0.8,0,1.4,0,1.8h0l3.3-5.5h0.9V65h-0.8v-3.7c0-0.7,0-1.3,0-1.8h0L80.2,65h-0.9V58.5z"
		/>
	<path fill="#231F20" d="M91,65h-0.8v-3h-3.3v3h-0.8v-6.5h0.8v2.8h3.3v-2.8H91V65z"/>
	<path fill="#231F20" d="M97.2,59.4c-0.4-0.2-0.8-0.3-1.4-0.3c-0.8,0-1.4,0.2-1.9,0.7s-0.7,1.1-0.7,1.9c0,0.8,0.2,1.4,0.7,1.9
		c0.5,0.5,1.1,0.7,1.9,0.7c0.5,0,0.9-0.1,1.3-0.3l0.1,0.8c-0.4,0.1-0.8,0.2-1.4,0.2c-1.1,0-1.9-0.3-2.5-0.9c-0.6-0.6-1-1.4-1-2.5
		c0-1,0.3-1.8,1-2.4c0.7-0.6,1.5-0.9,2.5-0.9c0.6,0,1,0.1,1.4,0.2L97.2,59.4z"/>
	<path fill="#231F20" d="M99.7,59.2h-2v-0.7h4.8v0.7h-2V65h-0.8V59.2z"/>
	<path fill="#231F20" d="M103.6,58.5h0.8v3.7c0,0.8,0,1.4,0,1.8h0l3.3-5.5h0.9V65h-0.8v-3.7c0-0.7,0-1.3,0-1.8h0l-3.4,5.5h-0.9V58.5
		z"/>
	<path fill="#231F20" d="M111.6,59.2h-2v-0.7h4.8v0.7h-2V65h-0.8V59.2z"/>
	<path fill="#231F20" d="M115.4,65l0.1-0.7c0.2,0.1,0.4,0.1,0.6,0.1c0.2,0,0.4-0.1,0.6-0.3c0.2-0.2,0.4-0.5,0.6-0.9l-2.6-4.7h0.9
		l2.1,3.9l2-3.9h0.9l-2.6,5c-0.3,0.5-0.6,0.9-0.8,1.2c-0.3,0.2-0.6,0.4-1,0.4C115.8,65.1,115.6,65,115.4,65z"/>
	<path fill="#231F20" d="M122.7,59.2h-2v-0.7h4.8v0.7h-2V65h-0.8V59.2z"/>
	<path fill="#231F20" d="M128.6,65l0.1-0.7c0.2,0.1,0.4,0.1,0.6,0.1c0.2,0,0.4-0.1,0.6-0.3c0.2-0.2,0.4-0.5,0.6-0.9l-2.6-4.7h0.9
		l2.1,3.9l2-3.9h0.9l-2.6,5c-0.3,0.5-0.6,0.9-0.8,1.2c-0.3,0.2-0.6,0.4-1,0.4C129.1,65.1,128.8,65,128.6,65z"/>
	<path fill="#231F20" d="M138.7,59.4c-0.4-0.2-0.8-0.3-1.4-0.3c-0.8,0-1.4,0.2-1.9,0.7c-0.5,0.5-0.7,1.1-0.7,1.9
		c0,0.8,0.2,1.4,0.7,1.9c0.5,0.5,1.1,0.7,1.9,0.7c0.5,0,0.9-0.1,1.3-0.3l0.1,0.8c-0.4,0.1-0.8,0.2-1.4,0.2c-1.1,0-1.9-0.3-2.5-0.9
		c-0.6-0.6-1-1.4-1-2.5c0-1,0.3-1.8,1-2.4c0.7-0.6,1.5-0.9,2.5-0.9c0.6,0,1,0.1,1.4,0.2L138.7,59.4z"/>
	<path fill="#231F20" d="M140.9,65h-0.8v-6.5h0.8v3h0c0.5-0.5,0.9-1,1.3-1.3l1.6-1.6h1.1l-3.1,3.1L145,65h-1.1l-2-2.1
		c-0.2-0.2-0.5-0.5-1-1.2h0V65z"/>
	<path fill="#231F20" d="M146.6,64.2c-0.6-0.6-0.8-1.4-0.8-2.4c0-1,0.3-1.9,0.9-2.5c0.6-0.6,1.3-0.9,2.3-0.9c0.9,0,1.6,0.3,2.2,0.9
		c0.5,0.6,0.8,1.4,0.8,2.4c0,1-0.3,1.9-0.8,2.5c-0.6,0.6-1.3,0.9-2.2,0.9C147.9,65.1,147.1,64.8,146.6,64.2z M150.4,63.7
		c0.4-0.5,0.6-1.1,0.6-2c0-0.8-0.2-1.5-0.6-2c-0.4-0.5-0.9-0.7-1.6-0.7c-0.7,0-1.2,0.2-1.6,0.7c-0.4,0.5-0.6,1.1-0.6,2
		c0,0.8,0.2,1.5,0.6,2c0.4,0.5,0.9,0.7,1.6,0.7C149.5,64.4,150,64.2,150.4,63.7z"/>
	<path fill="#231F20" d="M154.8,58.5c1.7,0,2.5,0.6,2.5,1.9c0,0.3-0.1,0.6-0.2,0.9c-0.1,0.3-0.3,0.5-0.6,0.6
		c-0.2,0.1-0.5,0.3-0.8,0.3c-0.3,0.1-0.6,0.1-1,0.1h-0.6V65h-0.8v-6.5H154.8z M154.1,61.6h0.6c0.6,0,1-0.1,1.3-0.3
		c0.3-0.2,0.4-0.5,0.4-0.9c0-0.4-0.1-0.8-0.4-1c-0.3-0.2-0.7-0.3-1.4-0.3h-0.6V61.6z"/>
	<path fill="#231F20" d="M162.1,65h-3.6v-6.5h3.5v0.7h-2.7v2.1h2.5V62h-2.5v2.4h2.8V65z"/>
	<path fill="#231F20" d="M168.5,65h-0.8v-3h-3.3v3h-0.8v-6.5h0.8v2.8h3.3v-2.8h0.8V65z"/>
	<path fill="#231F20" d="M170.3,58.5h0.8v3.7c0,0.8,0,1.4,0,1.8h0l3.3-5.5h0.9V65h-0.8v-3.7c0-0.7,0-1.3,0-1.8h0l-3.4,5.5h-0.9V58.5
		z"/>
	<path fill="#231F20" d="M178.5,62.1c-1.1-0.2-1.6-0.8-1.6-1.8c0-0.6,0.2-1.1,0.6-1.4s1-0.5,1.8-0.5h1.7V65h-0.8v-2.8h-0.8l-1.9,2.8
		h-1L178.5,62.1z M180.2,61.5v-2.4h-0.9c-1.1,0-1.6,0.4-1.6,1.2c0,0.4,0.1,0.7,0.4,0.9c0.3,0.2,0.6,0.3,1.1,0.3H180.2z"/>
	<path fill="#231F20" d="M184.4,64.8l0.1-0.7c0.4,0.2,0.9,0.3,1.4,0.3c0.7,0,1.3-0.2,1.8-0.7c0.5-0.5,0.7-1,0.8-1.8h-3.1v-0.7h3.1
		c-0.1-0.7-0.3-1.2-0.8-1.6c-0.4-0.4-1-0.6-1.7-0.6c-0.6,0-1.1,0.1-1.5,0.3l-0.1-0.7c0.5-0.2,1-0.3,1.6-0.3c1,0,1.8,0.3,2.4,0.9
		c0.6,0.6,0.9,1.4,0.9,2.4c0,1-0.3,1.9-0.9,2.5c-0.6,0.6-1.5,0.9-2.5,0.9C185.3,65.1,184.8,65,184.4,64.8z"/>
	<path fill="#231F20" d="M191.5,65h-0.8v-6.5h0.8v3h0c0.5-0.5,0.9-1,1.3-1.3l1.6-1.6h1.1l-3.1,3.1l3.4,3.5h-1.1l-2-2.1
		c-0.2-0.2-0.5-0.5-1-1.2h0V65z"/>
	<path fill="#231F20" d="M197.2,64.2c-0.6-0.6-0.8-1.4-0.8-2.4c0-1,0.3-1.9,0.9-2.5c0.6-0.6,1.3-0.9,2.3-0.9c0.9,0,1.6,0.3,2.2,0.9
		c0.5,0.6,0.8,1.4,0.8,2.4c0,1-0.3,1.9-0.8,2.5c-0.6,0.6-1.3,0.9-2.2,0.9C198.5,65.1,197.8,64.8,197.2,64.2z M201.1,63.7
		c0.4-0.5,0.6-1.1,0.6-2c0-0.8-0.2-1.5-0.6-2c-0.4-0.5-0.9-0.7-1.6-0.7c-0.7,0-1.2,0.2-1.6,0.7c-0.4,0.5-0.6,1.1-0.6,2
		c0,0.8,0.2,1.5,0.6,2c0.4,0.5,0.9,0.7,1.6,0.7C200.1,64.4,200.7,64.2,201.1,63.7z"/>
	<path fill="#231F20" d="M208.9,65H208v-3h-3.3v3H204v-6.5h0.8v2.8h3.3v-2.8h0.8V65z"/>
	<path fill="#231F20" d="M211.1,64.2c-0.6-0.6-0.8-1.4-0.8-2.4c0-1,0.3-1.9,0.9-2.5c0.6-0.6,1.3-0.9,2.3-0.9c0.9,0,1.6,0.3,2.2,0.9
		c0.5,0.6,0.8,1.4,0.8,2.4c0,1-0.3,1.9-0.8,2.5c-0.6,0.6-1.3,0.9-2.2,0.9C212.4,65.1,211.7,64.8,211.1,64.2z M215,63.7
		c0.4-0.5,0.6-1.1,0.6-2c0-0.8-0.2-1.5-0.6-2c-0.4-0.5-0.9-0.7-1.6-0.7c-0.7,0-1.2,0.2-1.6,0.7c-0.4,0.5-0.6,1.1-0.6,2
		c0,0.8,0.2,1.5,0.6,2c0.4,0.5,0.9,0.7,1.6,0.7C214,64.4,214.6,64.2,215,63.7z"/>
	<path fill="#231F20" d="M220.9,62.8c0.2,0.5,0.3,0.9,0.5,1.4h0c0.1-0.4,0.3-0.9,0.5-1.4l1.7-4.3h1.3V65H224v-4.4c0-0.7,0-1.2,0-1.5
		h0c-0.1,0.3-0.3,0.8-0.5,1.3l-1.8,4.7H221l-1.8-4.6c-0.2-0.5-0.4-1-0.5-1.4h0c0,0.3,0,0.8,0,1.5V65h-0.8v-6.5h1.3L220.9,62.8z"/>
	<path fill="#231F20" d="M226.6,58.5h0.8v3.7c0,0.8,0,1.4,0,1.8h0l3.3-5.5h0.9V65h-0.8v-3.7c0-0.7,0-1.3,0-1.8h0l-3.4,5.5h-0.9V58.5
		z"/>
	<path fill="#231F20" d="M236.9,62.2c-0.5,0.1-1,0.2-1.5,0.2c-0.3,0-0.6,0-0.8-0.1c-0.2,0-0.4-0.1-0.7-0.3c-0.2-0.1-0.4-0.3-0.5-0.6
		c-0.1-0.3-0.2-0.7-0.2-1.1v-1.9h0.8v1.9c0,0.5,0.1,0.9,0.3,1.1c0.2,0.2,0.6,0.3,1.1,0.3c0.2,0,0.5,0,0.8-0.1c0.3,0,0.5-0.1,0.6-0.1
		v-3.1h0.8V65h-0.8V62.2z"/>
	<path fill="#231F20" d="M243.1,65h-3.6v-6.5h3.5v0.7h-2.7v2.1h2.5V62h-2.5v2.4h2.8V65z"/>
	<path fill="#231F20" d="M249,59.4c-0.4-0.2-0.8-0.3-1.4-0.3c-0.8,0-1.4,0.2-1.9,0.7s-0.7,1.1-0.7,1.9c0,0.8,0.2,1.4,0.7,1.9
		c0.5,0.5,1.1,0.7,1.9,0.7c0.5,0,0.9-0.1,1.3-0.3l0.1,0.8c-0.4,0.1-0.8,0.2-1.4,0.2c-1.1,0-1.9-0.3-2.5-0.9c-0.6-0.6-1-1.4-1-2.5
		c0-1,0.3-1.8,1-2.4c0.7-0.6,1.5-0.9,2.5-0.9c0.6,0,1,0.1,1.4,0.2L249,59.4z"/>
	<path fill="#231F20" d="M251.1,65h-0.8v-6.5h0.8v3h0c0.5-0.5,0.9-1,1.3-1.3l1.6-1.6h1.1l-3.1,3.1l3.4,3.5h-1.1l-2-2.1
		c-0.2-0.2-0.5-0.5-1-1.2h0V65z"/>
	<path fill="#231F20" d="M256.8,64.2c-0.6-0.6-0.8-1.4-0.8-2.4c0-1,0.3-1.9,0.9-2.5s1.3-0.9,2.3-0.9c0.9,0,1.6,0.3,2.2,0.9
		c0.5,0.6,0.8,1.4,0.8,2.4c0,1-0.3,1.9-0.8,2.5c-0.6,0.6-1.3,0.9-2.2,0.9C258.1,65.1,257.4,64.8,256.8,64.2z M260.7,63.7
		c0.4-0.5,0.6-1.1,0.6-2c0-0.8-0.2-1.5-0.6-2c-0.4-0.5-0.9-0.7-1.6-0.7c-0.7,0-1.2,0.2-1.6,0.7c-0.4,0.5-0.6,1.1-0.6,2
		c0,0.8,0.2,1.5,0.6,2c0.4,0.5,0.9,0.7,1.6,0.7C259.7,64.4,260.3,64.2,260.7,63.7z"/>
	<path fill="#231F20" d="M263.6,58.5h3.5v0.7h-2.7V65h-0.8V58.5z"/>
	<path fill="#231F20" d="M268.3,64.2c-0.6-0.6-0.8-1.4-0.8-2.4c0-1,0.3-1.9,0.9-2.5s1.3-0.9,2.3-0.9c0.9,0,1.6,0.3,2.2,0.9
		c0.5,0.6,0.8,1.4,0.8,2.4c0,1-0.3,1.9-0.8,2.5c-0.6,0.6-1.3,0.9-2.2,0.9C269.6,65.1,268.9,64.8,268.3,64.2z M272.1,63.7
		c0.4-0.5,0.6-1.1,0.6-2c0-0.8-0.2-1.5-0.6-2c-0.4-0.5-0.9-0.7-1.6-0.7c-0.7,0-1.2,0.2-1.6,0.7c-0.4,0.5-0.6,1.1-0.6,2
		c0,0.8,0.2,1.5,0.6,2c0.4,0.5,0.9,0.7,1.6,0.7C271.2,64.4,271.7,64.2,272.1,63.7z"/>
	<path fill="#231F20" d="M278.7,58.5c1.7,0,2.5,0.6,2.5,1.9c0,0.3-0.1,0.6-0.2,0.9c-0.1,0.3-0.3,0.5-0.6,0.6
		c-0.2,0.1-0.5,0.3-0.8,0.3c-0.3,0.1-0.6,0.1-1,0.1h-0.6V65h-0.8v-6.5H278.7z M278.1,61.6h0.6c0.6,0,1-0.1,1.3-0.3
		c0.3-0.2,0.4-0.5,0.4-0.9c0-0.4-0.1-0.8-0.4-1c-0.3-0.2-0.7-0.3-1.4-0.3h-0.6V61.6z"/>
	<path fill="#231F20" d="M287.6,65h-0.9l-0.7-1.7h-3.2l-0.7,1.7h-0.9l2.8-6.5h0.8L287.6,65z M284.8,60.4c-0.2-0.6-0.4-1-0.5-1.2h0
		c-0.1,0.3-0.3,0.7-0.5,1.2l-0.9,2.2h2.7L284.8,60.4z"/>
	<path fill="#231F20" d="M288,64.8l0.1-0.8c0.4,0.2,0.9,0.3,1.5,0.3c0.4,0,0.8-0.1,1.1-0.3c0.3-0.2,0.5-0.5,0.5-1
		c0-0.8-0.6-1.2-1.7-1.2c-0.1,0-0.1,0-0.2,0c-0.1,0-0.2,0-0.2,0v-0.7c0,0,0.2,0,0.3,0c0.2,0,0.4,0,0.6-0.1c0.2,0,0.4-0.1,0.5-0.2
		c0.2-0.1,0.3-0.2,0.4-0.4c0.1-0.2,0.2-0.4,0.2-0.6c0-0.3-0.1-0.6-0.4-0.8c-0.3-0.2-0.6-0.2-1-0.2c-0.5,0-1,0.1-1.4,0.3l-0.1-0.7
		c0.6-0.2,1.1-0.3,1.6-0.3c0.6,0,1.1,0.1,1.5,0.4c0.4,0.3,0.6,0.7,0.6,1.2c0,0.4-0.1,0.7-0.4,1c-0.2,0.3-0.6,0.4-1,0.5v0
		c0.4,0,0.8,0.2,1,0.5c0.3,0.3,0.4,0.7,0.4,1.1c0,0.6-0.2,1.1-0.7,1.4c-0.4,0.3-1,0.5-1.8,0.5C289,65.1,288.5,65,288,64.8z"/>
	<path fill="#231F20" d="M293.6,58.5h1.6c0.7,0,1.3,0.1,1.7,0.4c0.4,0.3,0.6,0.7,0.6,1.3c0,0.4-0.1,0.7-0.4,1
		c-0.2,0.3-0.6,0.4-1,0.5v0c0.5,0.1,0.8,0.2,1.1,0.5c0.3,0.3,0.4,0.6,0.4,1.1c0,0.6-0.2,1.1-0.7,1.4c-0.5,0.3-1,0.4-1.8,0.4h-1.6
		V58.5z M294.3,61.3h0.6c0.5,0,0.9-0.1,1.3-0.2c0.3-0.2,0.5-0.4,0.5-0.9c0-0.7-0.5-1.1-1.6-1.1h-0.7V61.3z M294.3,64.4h0.7
		c1.2,0,1.8-0.4,1.8-1.2c0-0.4-0.2-0.7-0.5-0.9c-0.3-0.2-0.8-0.3-1.4-0.3h-0.6V64.4z"/>
	<path fill="#231F20" d="M299.2,58.5h0.8v3.7c0,0.8,0,1.4,0,1.8h0l3.3-5.5h0.9V65h-0.8v-3.7c0-0.7,0-1.3,0-1.8h0l-3.4,5.5h-0.9V58.5
		z"/>
	<path fill="#231F20" d="M307.2,59.2h-2v-0.7h4.8v0.7h-2V65h-0.8V59.2z"/>
	<path fill="#231F20" d="M311,58.5h0.8v3.7c0,0.8,0,1.4,0,1.8h0l3.3-5.5h0.9V65h-0.8v-3.7c0-0.7,0-1.3,0-1.8h0l-3.4,5.5H311V58.5z"
		/>
	<path fill="#231F20" d="M319.2,62.1c-1.1-0.2-1.6-0.8-1.6-1.8c0-0.6,0.2-1.1,0.6-1.4c0.4-0.3,1-0.5,1.8-0.5h1.7V65h-0.8v-2.8h-0.8
		l-1.9,2.8h-1L319.2,62.1z M320.9,61.5v-2.4H320c-1.1,0-1.6,0.4-1.6,1.2c0,0.4,0.1,0.7,0.4,0.9c0.3,0.2,0.6,0.3,1.1,0.3H320.9z"/>
</g>
</svg>
