<?xml version="1.0" encoding="utf-8"?><svg viewBox="0 0 243 51" xmlns="http://www.w3.org/2000/svg" xmlns:xlink="http://www.w3.org/1999/xlink"><style>:root>svg{display:none}:root>svg:target{display:block}</style><svg fill="none" viewBox="0 0 40 40" id="arr-left" xmlns="http://www.w3.org/2000/svg"><circle cx="20" cy="20" r="20" fill="#62A623"/><path d="M23.41 24.59L18.83 20l4.58-4.59L22 14l-6 6 6 6 1.41-1.41z" fill="#fff"/></svg><svg fill="none" viewBox="0 0 40 40" id="arr-right" xmlns="http://www.w3.org/2000/svg"><circle cx="20" cy="20" r="20" fill="#62A623"/><path d="M16.59 24.59L21.17 20l-4.58-4.59L18 14l6 6-6 6-1.41-1.41z" fill="#fff"/></svg><svg fill="none" viewBox="0 0 243 51" id="logo" xmlns="http://www.w3.org/2000/svg"><path d="M37.615 11.648L19.742 9.051 12.64 25.658l-1.863-.8L18.49 6.814 29.777 8.46 27.28 4.007l1.85-1.036 3.292 5.876 5.483.794-.289 2.007z" fill="#EF3E2D"/><path d="M33.798 6.84L29.961 0l-5.654 3.175 1.397 2.485-8.566-1.246L7.91 26.006l5.903 2.519.945-2.217 6.46 11.517 9.609-5.391-4.755-8.435 3.502-1.968 4.73 8.442 9.227-5.175-6.453-11.524 2.38.347.925-6.33-6.585-.95zm6.762 17.618l-5.417 3.043-4.736-8.44-7.306 4.098 4.735 8.435-5.805 3.28-6.21-11.098 5.246-12.324L34.35 13.38l6.211 11.078zm-2.945-12.81L19.742 9.026 12.64 25.658l-1.863-.8L18.49 6.815 29.778 8.46l-2.5-4.454 1.85-1.036 3.28 5.903 5.483.794-.276 1.98zM13.63 50.03a4.539 4.539 0 114.538-4.538 4.545 4.545 0 01-4.538 4.539zm0-7.11a2.571 2.571 0 102.57 2.572 2.578 2.578 0 00-2.57-2.571zM37.28 50.03a4.54 4.54 0 114.54-4.538 4.545 4.545 0 01-4.54 4.539zm0-7.11a2.571 2.571 0 100 5.143 2.571 2.571 0 000-5.142zM77.723 17.709v20.654h-4.749V30.17h-7.87v8.192h-4.762V17.709h4.748v7.87h7.871v-7.87h4.762zM101.007 28.045a10.557 10.557 0 01-.801 4.126 10.934 10.934 0 01-2.177 3.325 9.937 9.937 0 01-3.234 2.23 10.14 10.14 0 01-7.87 0 9.983 9.983 0 01-3.227-2.23 10.94 10.94 0 01-2.178-3.325 10.998 10.998 0 010-8.238 10.88 10.88 0 012.178-3.345 9.958 9.958 0 017.175-3.03 9.989 9.989 0 017.215 3.03 10.872 10.872 0 012.177 3.345c.518 1.308.769 2.706.742 4.112zm-4.75 0a6.434 6.434 0 00-.425-2.36 5.905 5.905 0 00-1.168-1.87 5.249 5.249 0 00-1.718-1.227 5.247 5.247 0 00-4.192 0 5.346 5.346 0 00-1.725 1.227 5.903 5.903 0 00-1.16 1.87 6.736 6.736 0 000 4.715c.266.69.66 1.325 1.16 1.87.488.521 1.074.94 1.725 1.232a5.247 5.247 0 004.192 0c.65-.29 1.235-.71 1.718-1.233.503-.544.9-1.178 1.168-1.869.283-.752.42-1.551.406-2.355h.02zM116.748 27.39a6.09 6.09 0 011.64 1.114c.45.443.831.952 1.128 1.509a4.63 4.63 0 01.511 2.289 5.623 5.623 0 01-.492 2.342 5.731 5.731 0 01-1.397 1.921 6.81 6.81 0 01-2.125 1.312 7.212 7.212 0 01-2.708.492h-9.367v-20.66h8.875a7.02 7.02 0 012.584.459 6.177 6.177 0 012.013 1.246 5.763 5.763 0 011.312 1.817c.321.692.485 1.447.479 2.21a3.833 3.833 0 01-.394 1.804 5.06 5.06 0 01-.852 1.213c-.356.366-.763.68-1.207.931zm-8.028-1.476h3.607a2.227 2.227 0 001.633-.656 2.026 2.026 0 000-2.985 2.223 2.223 0 00-1.633-.655h-3.607v4.296zm4.099 8.526a2.57 2.57 0 001.863-.734 2.341 2.341 0 000-3.444 2.537 2.537 0 00-1.869-.747h-4.1v4.919l4.106.006zM122.939 38.363V17.709h4.749v6.559h3.116a7.87 7.87 0 012.951.544 6.964 6.964 0 012.322 1.509 7.087 7.087 0 011.541 2.243 7.068 7.068 0 010 5.503 7.036 7.036 0 01-3.863 3.752c-.94.366-1.942.549-2.951.537l-7.865.007zm4.749-9.504v4.92h3.116a2.571 2.571 0 001.869-.735 2.34 2.34 0 000-3.443 2.575 2.575 0 00-1.869-.742h-3.116zm17.204 9.497h-4.749V17.71h4.749v20.647zM153.576 17.709v12.304l8.356-12.304h4.257v20.654h-4.749V26.078l-8.356 12.285h-4.257V17.709h4.749zm3.935-1.968a4.708 4.708 0 01-1.797-.328 4.786 4.786 0 01-1.443-.879 4.257 4.257 0 01-.997-1.344 5.688 5.688 0 01-.512-1.706h3.116c.059.449.259.867.571 1.194a1.492 1.492 0 002.131 0c.312-.327.512-.745.571-1.194h3.115a5.125 5.125 0 01-1.521 3.05 4.501 4.501 0 01-3.24 1.207h.006zM196.661 33.778v7.26h-4.748v-2.675h-11.472v2.676h-4.749v-7.26h1.312a3.16 3.16 0 00.951-.657 4.29 4.29 0 00.702-.983 4.9 4.9 0 00.479-1.627l1.469-12.803h13.774v16.07h2.282zM189.617 22.3h-4.913l-.984 8.186a5.866 5.866 0 01-.413 1.626 4.978 4.978 0 01-.538.997c-.188.258-.421.48-.688.656h7.536V22.3zM218.122 28.046a10.427 10.427 0 01-.8 4.125 10.81 10.81 0 01-2.191 3.326 9.972 9.972 0 01-3.227 2.23 10.134 10.134 0 01-7.87 0 9.972 9.972 0 01-3.227-2.23 10.827 10.827 0 01-2.184-3.326 10.99 10.99 0 010-8.238 10.775 10.775 0 012.184-3.345 10 10 0 017.175-3.036 9.995 9.995 0 017.176 3.037c.928.969 1.666 2.104 2.177 3.345.536 1.303.804 2.702.787 4.112zm-4.748 0a6.437 6.437 0 00-.427-2.361 5.75 5.75 0 00-1.161-1.87 5.34 5.34 0 00-1.725-1.226 5.244 5.244 0 00-4.191 0 5.317 5.317 0 00-1.718 1.226 5.918 5.918 0 00-1.168 1.87 6.738 6.738 0 000 4.716c.269.69.665 1.325 1.168 1.869.485.521 1.069.94 1.718 1.233a5.249 5.249 0 004.191 0 5.355 5.355 0 001.725-1.233 5.75 5.75 0 001.161-1.87c.29-.75.435-1.55.427-2.354zM238.743 17.709H243v20.654h-4.749V28.046l-4.755 10.317h-2.945l-4.729-10.317v10.317h-4.749V17.709h4.257l6.723 14.594 6.69-14.594zM60.303 49.953v-4.84h3.2v.937H61.47v3.936l-1.167-.033zM69.262 46.883h-.052l-1.883 3.07h-1.082v-4.84h1.122v3.062h.052l1.89-3.063h1.055v4.84h-1.102v-3.069zM76.365 49.953v-3.896h-1.712v3.896h-1.194v-4.84h4.047v4.84h-1.141zM83.875 49.953h-3.247v-4.84h3.247v.924h-2.093v1.056h1.968v.853h-1.968v1.082h2.093v.925zM89.857 45.342c.242.145.438.357.564.61a1.968 1.968 0 010 1.679c-.13.251-.33.459-.577.597a1.79 1.79 0 01-.938.223h-.866v1.502h-1.2v-4.84h2.046c.34-.02.677.06.97.229zm-.656.866a.793.793 0 00-.57-.204h-.617v1.568h.616a.82.82 0 00.414-.092.655.655 0 00.275-.269.904.904 0 00.092-.42.787.787 0 00-.21-.583zM93.346 49.953v-4.84h1.2l1.246 2.76h.04l1.246-2.76h1.193v4.84h-1.049v-3.017h-.052l-1.024 2.295h-.656l-1.042-2.295h-.053v3.017h-1.05zM100.928 49.953l1.567-4.84h1.417l1.554 4.84h-1.239l-.315-1.115h-1.502l-.315 1.115h-1.167zm2.217-3.798l-.519 1.843h1.076l-.505-1.843h-.052zM111.101 45.342c.244.145.442.357.57.61.128.261.193.549.191.84a1.8 1.8 0 01-.197.839c-.126.252-.325.46-.571.597a1.802 1.802 0 01-.938.223h-.872v1.502h-1.161v-4.84h2.066c.319-.011.635.068.912.229zm-.656.866a.82.82 0 00-.571-.204h-.616v1.568h.616a.829.829 0 00.413-.092.587.587 0 00.269-.269.82.82 0 00.099-.42.777.777 0 00-.184-.583h-.026zM116.007 47.926h-.21v2.027h-1.167v-4.84h1.167v1.967h.21l1.483-1.968h1.311l-1.771 2.296 1.765 2.545h-1.391l-1.397-2.027zM124.665 49.953h-3.247v-4.84h3.247v.924h-2.099v1.056h1.967v.853h-1.967v1.082h2.099v.925zM128.554 49.953v-3.89h-1.312v-.95h3.804v.95h-1.311v3.89h-1.181zM138.209 47.033h.59a.806.806 0 00.498-.15.505.505 0 00.191-.407.523.523 0 00-.197-.426.776.776 0 00-.505-.158.721.721 0 00-.65.328.799.799 0 00-.098.354h-1.076c.009-.285.09-.562.236-.806.162-.241.39-.43.656-.545.309-.14.646-.207.984-.197.325-.006.649.052.951.17.257.093.484.254.656.467.138.19.214.42.217.656.003.17-.038.34-.118.491-.084.146-.201.27-.342.361a1.226 1.226 0 01-.491.184v.059c.196.016.387.077.557.177.162.096.297.231.394.393.093.167.14.354.137.545.008.28-.075.557-.236.787-.167.23-.394.409-.656.518a2.62 2.62 0 01-1.029.184 2.28 2.28 0 01-1.076-.17 1.627 1.627 0 01-.656-.558 1.51 1.51 0 01-.243-.82h1.056a.695.695 0 00.414.61c.14.06.292.09.446.085.141.003.282-.024.413-.079a.654.654 0 00.275-.223.593.593 0 00.099-.334.565.565 0 00-.217-.466.944.944 0 00-.584-.164h-.59l-.006-.866zM143.141 49.953l1.561-4.84h1.416l1.555 4.84h-1.24l-.315-1.115h-1.502l-.314 1.115h-1.161zm2.21-3.798l-.518 1.843h1.075l-.505-1.843h-.052zM150.329 49.953v-4.84h3.201v.937h-2.02v3.936l-1.181-.033zM160.037 49.001c-.16.327-.416.597-.735.774-.357.188-.757.28-1.161.269a2.38 2.38 0 01-1.167-.269 1.835 1.835 0 01-.741-.774 2.561 2.561 0 01-.249-1.18v-.564c-.013-.41.073-.817.249-1.188.162-.327.421-.597.741-.774a2.38 2.38 0 011.167-.269c.405-.012.806.083 1.161.276.318.174.575.442.735.767.179.37.266.777.256 1.188v.564c.01.408-.078.813-.256 1.18zm-1.043-2.433a.882.882 0 00-.839-.57.939.939 0 00-.512.144.887.887 0 00-.334.426 1.67 1.67 0 00-.125.702v.583c-.008.24.035.48.125.702.066.172.182.321.334.426a.94.94 0 00.512.145.904.904 0 00.498-.145.926.926 0 00.341-.426 1.72 1.72 0 00.125-.702v-.63a1.676 1.676 0 00-.125-.655zM166.189 45.341c.244.144.44.356.564.61.131.26.196.549.191.84a1.88 1.88 0 01-.191.84c-.129.25-.33.458-.577.596a1.79 1.79 0 01-.938.223h-.865v1.502h-1.168v-4.84h2.079c.317-.008.63.071.905.23zm-.656.866a.791.791 0 00-.57-.203h-.617v1.567h.617a.848.848 0 00.42-.091.663.663 0 00.269-.27.91.91 0 00.091-.42.8.8 0 00-.035-.31.798.798 0 00-.155-.273h-.02zM173.574 49.001a1.81 1.81 0 01-.734.774 2.623 2.623 0 01-2.329 0 1.799 1.799 0 01-.741-.774 2.564 2.564 0 01-.255-1.18v-.564c-.011-.411.077-.818.255-1.188.166-.331.433-.602.761-.774.358-.187.758-.28 1.161-.269.407-.012.809.083 1.168.276.316.176.572.444.734.767.179.37.266.777.256 1.188v.564c.004.41-.091.814-.276 1.18zm-1.075-2.433a.944.944 0 00-.341-.426.912.912 0 00-.505-.145.93.93 0 00-.505.145.937.937 0 00-.341.426 1.79 1.79 0 00-.118.702v.583c-.007.24.033.478.118.702a.97.97 0 00.341.426.931.931 0 00.505.145.913.913 0 00.505-.145.979.979 0 00.341-.446c.084-.224.124-.462.118-.701v-.61a1.793 1.793 0 00-.118-.656zM176.191 50.97V49h.387a.778.778 0 00.223-.242c.064-.122.111-.252.138-.387.037-.189.064-.38.079-.57 0-.23 0-.506.039-.82l.066-1.877h3.515v3.896h.591v1.968h-1.037v-1.017h-2.971v1.017h-1.03zm3.28-4.913h-1.332l-.046 1.101v.617c-.01.165-.03.33-.059.492-.02.131-.051.26-.091.387-.037.108-.09.21-.158.301v.053h1.738l-.052-2.952zM186.869 49.953v-1.968h-1.784v1.968h-1.167v-4.84h1.167v1.915h1.784v-1.916h1.168v4.84h-1.168zM194.995 49.001a1.816 1.816 0 01-.734.774c-.36.188-.762.28-1.168.269a2.42 2.42 0 01-1.167-.269 1.818 1.818 0 01-.735-.774 2.578 2.578 0 01-.256-1.18v-.564c-.01-.411.078-.818.256-1.188.16-.327.417-.597.735-.774.36-.186.762-.278 1.167-.269.407-.012.81.083 1.168.276.316.176.572.444.734.767.179.37.267.777.256 1.188v.564c.01.408-.078.813-.256 1.18zm-1.056-2.433a.937.937 0 00-.341-.426.954.954 0 00-1.01 0 .944.944 0 00-.341.426c-.088.223-.13.462-.124.702v.583c-.005.24.037.478.124.702.071.172.189.32.341.426a.96.96 0 001.01 0 .97.97 0 00.341-.426c.085-.224.125-.462.118-.702v-.63a1.793 1.793 0 00-.118-.655zM201.148 46.882h-.053l-1.882 3.07h-1.063v-4.84h1.122v3.063h.052l1.883-3.063h1.062v4.84h-1.121v-3.07zm-1.482-3.2a.51.51 0 00.144.393.603.603 0 00.426.138c.153.01.303-.04.42-.138a.507.507 0 00.151-.393h.656a1.02 1.02 0 01-.328.8 1.517 1.517 0 01-1.778 0 1.028 1.028 0 01-.328-.8h.637zM211.196 45.112h1.122v1.968h.223l1.371-1.968h1.311l-1.738 2.407v-.249l1.738 2.683h-1.351l-1.312-2.027h-.223v2.027h-1.141v-2.027h-.216l-1.312 2.027h-1.312l1.719-2.624v.256l-1.771-2.453h1.311l1.371 1.968h.21v-1.988zM220.785 46.883h-.052l-1.882 3.07h-1.063v-4.84h1.122v3.062h.052l1.889-3.063h1.056v4.84h-1.122v-3.069zM226.051 47.033h.591a.806.806 0 00.498-.15.5.5 0 00.184-.407.518.518 0 00-.19-.426.776.776 0 00-.505-.158.784.784 0 00-.387.085.654.654 0 00-.361.597h-1.076c.008-.285.09-.562.236-.806.16-.243.389-.432.656-.545.309-.14.645-.207.984-.197.325-.006.648.052.951.17.259.09.486.252.656.467.143.189.221.419.223.656.003.17-.038.34-.118.491-.083.146-.2.27-.341.361-.151.097-.321.16-.499.184v.059c.199.015.392.076.564.177.162.095.295.23.387.393.099.165.149.353.145.545.007.28-.075.557-.236.787-.167.23-.394.41-.656.518a2.57 2.57 0 01-1.023.184 2.265 2.265 0 01-1.109-.17 1.627 1.627 0 01-.656-.558 1.509 1.509 0 01-.242-.82h1.056a.696.696 0 00.413.61c.14.06.293.09.446.085.141.003.282-.024.413-.079a.593.593 0 00.374-.558.552.552 0 00-.217-.465.943.943 0 00-.583-.164h-.591l.013-.866zM234.375 49.953v-1.968h-1.784v1.968h-1.167v-4.84h1.167v1.915h1.784v-1.916h1.168v4.84h-1.168zM241.636 46.883h-.052l-1.883 3.07h-1.062v-4.84h1.121v3.062h.053l1.882-3.063h1.063v4.84h-1.122v-3.069z" fill="#333132"/><path d="M40.56 24.458l-5.417 3.044-4.736-8.441-7.306 4.099 4.735 8.434-5.804 3.254-6.212-11.072 5.267-12.324L34.35 13.38l6.211 11.078z" fill="#F4E5B1"/><path d="M40.58 38.5H10.835L5.411 17.512h40.232L40.58 38.5zm-28.203-1.968h26.648l4.12-17.053H7.948l4.428 17.053z" fill="#333132"/><path d="M10.645 37.767L4.198 13.19l-4.139.118L0 11.341l5.706-.164 6.848 26.091-1.909.498z" fill="#333132"/></svg></svg>