<svg width="96" height="96" viewBox="0 0 96 96" fill="none" xmlns="http://www.w3.org/2000/svg"><circle cx="48" cy="48" r="48" fill="#EDF0F9"/><g clip-path="url(#clip0)" fill="#383085"><path d="M29.917 32.79c-2.334-2.333-12.25-2.916-15.459-3.208-.291 0-.583 0-.875.292-.291.291-.583.875-.583 1.166v26.25c0 .875.583 1.459 1.458 1.459h8.75c.584 0 1.167-.292 1.459-.875 0-.875 5.25-16.334 5.833-23.917 0-.292 0-.875-.583-1.167zm31.207 7.002c-2.916-.875-5.541-2.041-7.875-2.916-5.25-2.334-7.583-1.167-12.25 3.5-2.041 2.041-3.5 4.958-3.208 6.125 0 .291 0 .291.583.583 1.459.583 3.5.875 5.542-2.333.292-.292.583-.584 1.167-.584.875 0 1.166-.291 2.041-.583.584-.292 1.167-.584 2.042-.875h.583c.292 0 .875.291 1.167.291 1.458 1.459 4.083 3.5 6.708 5.834 4.084 3.208 8.167 6.708 10.209 9.333h.291c-2.041-5.833-5.541-15.75-7-18.375zM81.541 32.5c-11.375 0-17.791 2.917-18.083 2.917l-.875.875c0 .291 0 .875.292 1.166 1.75 2.917 7.583 18.959 8.458 23.042.292.583.875 1.166 1.458 1.166h8.75c.875 0 1.459-.583 1.459-1.458v-26.25c0-.875-.584-1.458-1.459-1.458z"/><path d="M65.792 61.084C63.75 58.29 59.88 54.833 55.5 51c-2.333-2.042-4-3.5-6.625-5.083-.291.292-.875.292-.875.584-.875.291-1.166.583-2.333.583-2.333 2.917-5.25 4.083-8.458 2.917-1.459-.292-2.334-1.459-2.625-2.625-.584-2.917 2.041-7 4.083-9.042h-5.833c-1.167 5.833-3.209 13.417-4.667 17.5 1.167 1.167 2.333 2.625 3.208 3.208 5.542 4.667 11.959 9.334 13.125 10.209.875.583 2.625 1.166 3.5 1.166h.875l-4.666-4.666c-.584-.584-.584-1.459 0-2.042.583-.583 1.458-.583 2.041 0l5.834 5.833c.583.584 1.166.292 1.75.292.875-.292 1.166-.875 1.458-1.75l-6.708-6.708c-.584-.584-.584-1.459 0-2.042.583-.583 1.458-.583 2.041 0l7.292 7.292c.291.291 1.458.291 2.333 0 .482-.161.875-.584 1.167-1.167l-8.167-8.167c-.583-.583-.583-1.458 0-2.041.584-.584 1.459-.584 2.042 0l8.458 8.458C64.5 64 65 64 65.5 63.417c.292-.291.875-1.166.292-2.333z"/></g><defs><clipPath id="clip0"><path fill="#fff" transform="translate(13 15)" d="M0 0h70v70H0z"/></clipPath></defs></svg>