<?xml version="1.0" encoding="utf-8"?><svg width="179" height="56" fill="none" xmlns="http://www.w3.org/2000/svg" viewBox="0 0 179 56"><path d="M52.875 12.83a4.707 4.707 0 01-3.496 1.009 4.693 4.693 0 01-1.764-.578 4.726 4.726 0 01-1.406-1.218 4.88 4.88 0 01.774-6.777 4.704 4.704 0 013.496-1.01 4.725 4.725 0 013.17 1.796 4.879 4.879 0 01-.774 6.777z" fill="#C6008E"/><path d="M65.65 37.846v4.779c.683.087 1.481.149 2.163.149 1.247 0 2.79-.538 2.79-2.57 0-1.85-1.188-2.417-2.877-2.417-.623 0-1.098.028-2.075.059h-.002zm-4.744 16.427V33.366c1.155 0 4.745-.061 6.345-.061 6.314 0 8.391 3.316 8.391 6.93 0 3.734-2.877 7.019-7.678 7.019-.445 0-1.572 0-2.313-.088v7.109l-4.745-.002zm30.39-4.12c3.943 0 5.988-2.809 5.988-6.334 0-3.823-2.638-6.333-5.988-6.333-3.439 0-5.99 2.51-5.99 6.333 0 3.584 2.669 6.334 5.99 6.334zm0-17.147c6.315 0 11.029 4.15 11.029 10.813 0 6.334-4.714 10.814-11.029 10.814-6.316 0-11.028-4.15-11.028-10.814 0-6.063 4.418-10.813 11.028-10.813zm70.964.358h4.239l8.627 20.91h-5.07l-5.811-14.785-5.841 14.786h-4.773l8.629-20.911zm-39.527 14.95c-1.003 1.138-2.498 1.839-4.464 1.839-3.32 0-5.987-2.75-5.987-6.334 0-3.823 2.55-6.333 5.987-6.333 1.757 0 3.304.703 4.392 1.91l3.47-3.498c-1.966-1.86-4.715-2.892-7.862-2.892-6.611 0-11.029 4.75-11.029 10.813 0 6.661 4.715 10.814 11.029 10.814 3.115 0 5.835-1.094 7.796-2.958l-3.332-3.36zm12.489-8.992c1.002-1.136 2.498-1.834 4.464-1.834 3.319 0 5.987 2.745 5.987 6.331 0 3.824-2.55 6.334-5.987 6.334-1.757 0-3.305-.703-4.392-1.91l-3.472 3.498c1.966 1.86 4.716 2.892 7.864 2.892 6.61 0 11.028-4.75 11.028-10.814 0-6.66-4.714-10.813-11.028-10.813-3.117 0-5.837 1.093-7.799 2.958l3.335 3.358z" fill="#000"/><path d="M16.667 47.512H28.2l8.153-8.218V27.677L28.2 19.459H16.667l-8.156 8.214v11.619l8.156 8.22zm14.277 6.672h-17.02L1.89 42.059V24.912l12.033-12.127h17.02l12.034 12.127v17.145L30.944 54.184z" fill="#1C1C1C"/><path d="M145.937 45.71h-9.708v-3.78h9.708v3.78z" fill="#000"/></svg>