<?xml version="1.0" encoding="utf-8"?><svg width="24" height="24" fill="none" xmlns="http://www.w3.org/2000/svg" viewBox="0 0 24 24"><g clip-path="url(#iclip0)" fill-rule="evenodd" clip-rule="evenodd"><path d="M8.282-.018h7.352c6.71 0 8.299 1.59 8.299 8.299v7.352c0 6.71-1.589 8.299-8.299 8.299H8.282c-6.71 0-8.299-1.589-8.299-8.299V8.281c0-6.71 1.59-8.299 8.299-8.299z" fill="#4680C2"/><path d="M19.589 8.231c.118-.371 0-.642-.524-.642h-1.74c-.44 0-.643.237-.761.49 0 0-.896 2.164-2.147 3.566-.405.406-.591.541-.811.541-.118 0-.27-.135-.27-.507V8.215c0-.44-.136-.643-.508-.643H10.09c-.27 0-.44.203-.44.406 0 .422.626.524.694 1.707v2.569c0 .558-.101.66-.321.66-.592 0-2.028-2.181-2.89-4.666-.17-.49-.338-.676-.778-.676H4.597c-.507 0-.591.237-.591.49 0 .457.591 2.755 2.755 5.798 1.436 2.079 3.481 3.194 5.324 3.194 1.115 0 1.25-.254 1.25-.676v-1.572c0-.507.102-.591.457-.591.253 0 .71.135 1.74 1.132 1.184 1.183 1.387 1.724 2.046 1.724h1.74c.508 0 .744-.254.609-.744-.152-.49-.727-1.2-1.47-2.045-.406-.473-1.015-.997-1.2-1.25-.254-.339-.186-.474 0-.778-.017 0 2.112-3.008 2.332-4.023z" fill="#fff"/></g><defs><clipPath id="iclip0"><path fill="#fff" d="M0 0h24v24H0z"/></clipPath></defs></svg>